<?xml version="1.0" encoding="UTF-8"?>
<svg version="1.1" xmlns="http://www.w3.org/2000/svg" width="800" height="800">
<path d="M0 0 C0.79604954 -0.00350607 1.59209907 -0.00701215 2.41227132 -0.01062447 C5.06624631 -0.01989086 7.71999956 -0.01502752 10.37398338 -0.01015663 C12.30146887 -0.0138953 14.22895284 -0.01849768 16.15643442 -0.02388728 C21.44309504 -0.03610605 26.72969234 -0.03585812 32.01636386 -0.03349853 C37.72207725 -0.03309007 43.42777041 -0.04413227 49.13347435 -0.05361366 C60.30874255 -0.0702188 71.48398966 -0.075723 82.65926917 -0.07683842 C91.74502794 -0.07778918 100.83077976 -0.08190089 109.91653633 -0.08823967 C131.49316058 -0.1029861 153.06977834 -0.11528953 174.64640808 -0.11424255 C175.68096735 -0.11419582 175.68096735 -0.11419582 176.73642681 -0.11414814 C180.231935 -0.11398193 183.72744318 -0.11378385 187.22295137 -0.11357872 C187.91713811 -0.11353883 188.61132486 -0.11349894 189.32654756 -0.11345784 C190.73036244 -0.11337697 192.13417731 -0.11329337 193.53799218 -0.11320706 C215.37107506 -0.111982 237.20409578 -0.12698791 259.03716087 -0.15435219 C283.58238931 -0.18510326 308.12757295 -0.20225751 332.67282236 -0.20042574 C345.6629051 -0.1997622 358.65291774 -0.20523876 371.64298439 -0.22678185 C382.7040541 -0.24500845 393.76502194 -0.2493288 404.82610019 -0.235763 C410.46643451 -0.22924072 416.10657347 -0.22908956 421.74688911 -0.2464695 C426.91751588 -0.26223784 432.08779301 -0.25929806 437.25841145 -0.24190123 C439.12179022 -0.23883962 440.98519532 -0.24243184 442.848543 -0.25362138 C457.05825341 -0.33325142 470.0746651 1.19468045 482.87553978 7.94476891 C483.53755394 8.2865316 484.1995681 8.6282943 484.8816433 8.98041344 C503.7941289 19.10284723 517.34365136 36.90200257 523.62553978 57.25726891 C525.55199424 64.1418162 525.91082265 70.64658786 525.88280869 77.77082062 C525.88631476 78.90623326 525.88982083 80.04164591 525.89343315 81.211465 C525.90274431 85.01984216 525.89782445 88.82806631 525.89296532 92.63644981 C525.89559849 95.39302244 525.90122351 98.14958721 525.90669596 100.90615547 C525.91699022 106.90157676 525.91984075 112.89696576 525.91778374 118.89239502 C525.91473225 127.80814321 525.92306103 136.7238557 525.93353299 145.63959695 C525.95287261 162.49081626 525.95850121 179.34202341 525.9596471 196.19325252 C525.96056632 209.20778673 525.96468366 222.22231617 525.97104836 235.23684883 C525.97284346 238.98358499 525.97462308 242.73032116 525.97639811 246.47705734 C525.97706125 247.87425185 525.97706125 247.87425185 525.9777378 249.29967252 C525.99004597 275.49963932 525.99793895 301.69960446 525.99705124 327.89957428 C525.99702008 328.88733537 525.99698892 329.87509647 525.99695682 330.89278971 C525.99679061 335.8991243 525.99659253 340.9054589 525.99638741 345.91179349 C525.99632757 347.40319491 525.99632757 347.40319491 525.99626653 348.92472566 C525.99618565 350.93537752 525.99610206 352.94602938 525.99601574 354.95668124 C525.99479039 386.23528114 526.00980072 417.51383767 526.03716087 448.79242516 C526.06789088 483.93793067 526.0850928 519.08340769 526.08323443 554.22892749 C526.08308517 557.97754979 526.08298776 561.72617209 526.0829258 565.47479439 C526.08289083 566.85929112 526.08289083 566.85929112 526.08285516 568.27175749 C526.08279365 583.11682201 526.09555835 597.96184885 526.11279033 612.80690218 C526.12975511 627.73060415 526.13171403 642.65425106 526.11857168 657.57795735 C526.11118808 666.43983314 526.11482281 675.30154152 526.13445636 684.16339953 C526.14647407 690.08930466 526.14384545 696.0150888 526.12951537 701.94098842 C526.12176721 705.31329905 526.12238516 708.68502327 526.13643007 712.05735232 C526.20101224 728.66697421 525.82341631 743.5786522 517.87553978 758.56976891 C517.53264915 759.23363609 517.18975853 759.89750328 516.83647728 760.58148766 C513.74752268 766.37609592 510.06111159 771.40969734 505.62553978 776.25726891 C505.03514915 776.93918297 504.44475853 777.62109703 503.83647728 778.32367516 C494.49200789 788.48330038 479.31946617 797.64970217 465.62553978 800.25726891 C462.96692386 800.35435926 460.33465753 800.39849774 457.67611694 800.39428329 C456.86527655 800.39693512 456.05443615 800.39958695 455.21902484 800.40231913 C452.48469605 800.41001739 449.75041213 800.41057151 447.01607323 800.41116905 C445.04269365 800.41518334 443.06931489 800.41962151 441.09593713 800.42444861 C435.65924829 800.43642396 430.22256833 800.44206481 424.78586888 800.44662976 C418.92739672 800.45258231 413.06893519 800.46419312 407.2104702 800.47492027 C393.7232846 800.49829381 380.23609572 800.51285333 366.74889608 800.52514969 C362.08138831 800.52940524 357.41388095 800.53398415 352.74637365 800.53873301 C327.92081899 800.56397094 303.09526377 800.58604134 278.2696991 800.59846115 C272.51803269 800.60138241 266.7663663 800.60434994 261.01469994 800.60736656 C259.94285645 800.60792293 259.94285645 800.60792293 258.84935957 800.60849053 C235.69304288 800.62064006 212.53680229 800.65157408 189.38052133 800.69328809 C165.56789847 800.73610606 141.75531581 800.76270609 117.94265342 800.76793587 C114.57691236 800.76867627 111.21117136 800.76958695 107.84543037 800.77059364 C107.18304807 800.77078426 106.52066576 800.77097487 105.83821126 800.77117126 C95.85127227 800.77446316 85.86444603 800.79183291 75.8775425 800.81648445 C64.50999289 800.8444978 53.14258793 800.8554786 41.77500649 800.84428899 C35.97681575 800.83910557 30.17892784 800.84196907 24.38078117 800.86675453 C19.06685702 800.88928001 13.75345267 800.88848112 8.43951921 800.86955066 C6.52284071 800.8667553 4.6061267 800.87232317 2.68950517 800.8873636 C-19.61710646 801.05162932 -36.78789746 793.28644858 -53.06196022 777.88226891 C-72.6240062 757.49559335 -74.98024864 733.89897795 -74.88239479 707.11896324 C-74.8847923 704.36530325 -74.89320133 701.61166863 -74.90130377 698.85802031 C-74.91568377 692.89060521 -74.9153537 686.92333513 -74.90511513 680.95591354 C-74.88993126 672.08189883 -74.89774801 663.20800554 -74.90994836 654.33399154 C-74.93097318 638.48137653 -74.92920099 622.62882613 -74.91763271 606.77620502 C-74.907559 592.90308004 -74.90494903 579.0299787 -74.90972328 565.15685081 C-74.91002882 564.23557934 -74.91033436 563.31430787 -74.91064916 562.36511908 C-74.91189457 558.6251061 -74.91316818 554.88509313 -74.91448822 551.14508017 C-74.92671627 516.08159122 -74.91564298 481.01814335 -74.89410063 445.95466074 C-74.87511909 414.82259796 -74.87681764 383.69060064 -74.8959446 352.55853844 C-74.91737655 317.5579956 -74.92584896 282.55748904 -74.91349554 247.55694056 C-74.91221273 243.82385604 -74.91096136 240.09077152 -74.90972328 236.357687 C-74.90940697 235.4385484 -74.90909066 234.5194098 -74.90876477 233.57241852 C-74.90422042 219.7101311 -74.90952564 205.84786995 -74.91964149 191.98558617 C-74.93108986 176.21897252 -74.92819508 160.45243343 -74.90651852 144.68582904 C-74.89479512 135.86856982 -74.89397506 127.05147217 -74.90910322 118.23421722 C-74.91810299 112.33701253 -74.91243625 106.43993679 -74.89508414 100.54275114 C-74.88561243 97.18778615 -74.88444896 93.8334021 -74.89670807 90.47840756 C-74.98825903 63.33518276 -70.1693319 41.92460145 -50.96821022 21.72601891 C-37.22644758 8.69811406 -19.1139507 -0.10868752 0 0 Z " fill="#F4EFEA" transform="translate(174.3744602203369,-0.25726890563964844)"/>
<path d="M0 0 C21.0413588 6.53951203 41.38675564 29.98275296 57.00390625 44.93359375 C57.62217285 45.52317871 58.24043945 46.11276367 58.87744141 46.72021484 C81.17131864 68.09174785 81.17131864 68.09174785 82.28125 79.87890625 C80.86591432 95.46753302 68.48637906 113.94751459 58.00390625 124.93359375 C56.6241903 126.07830314 55.22906059 127.20478969 53.81640625 128.30859375 C36.65654321 142.95394221 36.41375352 177.90691919 34.00390625 198.93359375 C42.47628511 197.01390284 50.90134837 195.0132554 59.25390625 192.62109375 C67.28382467 190.32876602 75.38077577 188.36673134 83.50390625 186.43359375 C92.0903855 184.38851711 100.63189905 182.28001755 109.1159668 179.84545898 C115.97503812 177.89575632 122.89327373 176.20192699 129.81640625 174.49609375 C142.82070658 171.28519853 155.68148069 167.68277911 168.52734375 163.89453125 C178.09111715 161.15103593 178.09111715 161.15103593 182.00390625 161.93359375 C188.892685 166.05251804 194.44990975 172.1040063 200.04956055 177.7734375 C201.56183806 179.30397041 203.08196323 180.82634907 204.60351562 182.34765625 C209.94218213 187.705448 215.11577386 193.15764433 220.00390625 198.93359375 C220.96575012 200.05112196 221.92797766 201.16832008 222.890625 202.28515625 C224.33823043 203.97534719 225.78406986 205.66703709 227.22973633 207.35888672 C229.85123501 210.42530201 232.47940146 213.48507317 235.12890625 216.52734375 C239.95918034 222.0844926 244.73385822 227.68213537 249.25390625 233.49609375 C249.9809375 234.42550781 250.70796875 235.35492188 251.45703125 236.3125 C253.17321118 239.22047155 253.59871177 240.6236112 253.00390625 243.93359375 C251.35131007 246.51325607 250.21990515 246.88512275 247.21875 247.55859375 C246.13722656 247.68234375 245.05570313 247.80609375 243.94140625 247.93359375 C232.25399318 249.35239609 232.25399318 249.35239609 223.00390625 255.93359375 C221.36221722 258.68562093 221.36221722 258.68562093 219.90234375 261.78125 C219.32871094 262.94591797 218.75507812 264.11058594 218.1640625 265.31054688 C217.56853915 266.53883412 216.97348617 267.76734954 216.37890625 268.99609375 C215.22239365 271.36312467 214.0634852 273.72898631 212.90234375 276.09375 C212.44943718 277.01695038 212.44943718 277.01695038 211.98738098 277.95880127 C209.46676502 283.06625321 206.82932278 288.1074029 204.1640625 293.140625 C171.69315051 349.08230191 171.69315051 349.08230191 155.79296875 410.30859375 C155.76203125 411.07429688 155.73109375 411.84 155.69921875 412.62890625 C155.65363276 414.12311385 155.63381538 415.61841684 155.64453125 417.11328125 C155.575774 420.75741559 155.06038993 422.84506423 153.08984375 425.93359375 C148.62646855 428.82631286 145.18265383 428.35510948 140.00390625 427.93359375 C138.49062744 427.83908936 138.49062744 427.83908936 136.94677734 427.74267578 C133.52601985 427.51970604 130.10932629 427.2588504 126.69140625 426.99609375 C101.97535586 425.22290485 77.25736461 424.82838701 52.48828125 424.40625 C49.81624071 424.36022601 47.14420452 424.31395539 44.47216797 424.2677002 C37.98276124 424.15551534 31.49334 424.0442041 25.00390625 423.93359375 C25.11159571 450.99556272 25.22443343 478.05750611 25.34324551 505.11942863 C25.39830603 517.68735777 25.45174037 530.25528974 25.5012207 542.82324219 C25.54439856 553.78929046 25.59075565 564.75532012 25.6407848 575.72133934 C25.66711848 581.51697746 25.69195922 587.31261253 25.71298027 593.10827255 C25.79305822 614.93458616 25.88267765 636.72243335 26.90299034 658.52856064 C27.14469802 664.28895032 27.16607542 670.05152197 27.171875 675.81640625 C27.1752034 677.05123749 27.1785318 678.28606873 27.18196106 679.55831909 C27.18693089 682.11341997 27.18937256 684.6685271 27.18920898 687.22363281 C27.19142459 691.09060225 27.20976544 694.95729822 27.22851562 698.82421875 C27.30559309 731.60311495 27.30559309 731.60311495 22.37890625 743.93359375 C22.12165771 744.58328125 21.86440918 745.23296875 21.59936523 745.90234375 C19.37208388 751.38002062 16.75381993 756.65743137 14.04760742 761.91162109 C11.246136 767.35635688 8.75212095 772.90017345 6.34985352 778.53125 C5.57833616 780.33653961 4.79143714 782.13523207 4.00390625 783.93359375 C3.54628906 785.05507813 3.08867187 786.1765625 2.6171875 787.33203125 C1.00390625 789.93359375 1.00390625 789.93359375 -1.68359375 790.80859375 C-2.82828125 790.87046875 -2.82828125 790.87046875 -3.99609375 790.93359375 C-21.54699046 766.50708803 -27.18643521 733.60641113 -27.12890625 704.08203125 C-27.12986298 702.98315582 -27.1308197 701.8842804 -27.13180542 700.75210571 C-27.13248185 698.44443708 -27.1306653 696.13676648 -27.12646484 693.82910156 C-27.12109865 690.31180531 -27.12643348 686.79463614 -27.1328125 683.27734375 C-27.13215182 681.0247393 -27.13087088 678.77213494 -27.12890625 676.51953125 C-27.13093048 675.47662933 -27.13295471 674.43372742 -27.13504028 673.35922241 C-27.13031204 671.87695663 -27.13031204 671.87695663 -27.12548828 670.36474609 C-27.12469269 669.50666351 -27.12389709 668.64858093 -27.12307739 667.76449585 C-26.99214913 664.84565462 -26.61273289 661.99593962 -26.23202324 659.1010704 C-25.81342538 655.25542527 -25.77704591 651.40596307 -25.71484375 647.54077148 C-25.68774795 646.16894762 -25.68774795 646.16894762 -25.66010475 644.76941013 C-25.60111527 641.71873346 -25.548452 638.66798471 -25.49609375 635.6171875 C-25.45558888 633.41861543 -25.41484153 631.22004781 -25.37387085 629.02148438 C-25.26421722 623.05031689 -25.16107891 617.07905343 -25.05980682 611.10773849 C-24.99613599 607.37357084 -24.93079301 603.63943568 -24.86505127 599.90530396 C-23.84365354 541.58495622 -23.37651354 483.26123262 -22.99609375 424.93359375 C-24.4234787 425.01661743 -24.4234787 425.01661743 -25.87969971 425.10131836 C-42.71348229 426.0789323 -59.54586538 427.05256311 -76.39053345 427.82525635 C-90.94097131 428.49446301 -105.47621787 429.28015089 -120.00488281 430.32421875 C-140.74477843 431.76780396 -140.74477843 431.76780396 -144.99609375 428.93359375 C-144.85460386 427.32903815 -144.70773689 425.72495608 -144.55859375 424.12109375 C-144.43677734 422.78111328 -144.43677734 422.78111328 -144.3125 421.4140625 C-143.99609375 418.93359375 -143.99609375 418.93359375 -142.99609375 415.93359375 C-142.62059327 408.45362412 -143.72214599 401.52022786 -145.12109375 394.18359375 C-145.34700195 392.99491699 -145.57291016 391.80624023 -145.80566406 390.58154297 C-151.57033062 361.18647511 -162.2989257 332.65729171 -180.99609375 308.93359375 C-181.61871094 308.12019531 -182.24132812 307.30679687 -182.8828125 306.46875 C-189.59855559 297.84589933 -196.94263581 289.76068775 -204.93359375 282.30859375 C-214.89572577 272.39983029 -215.15657785 257.96716553 -215.43359375 244.68359375 C-215.46807617 243.74870117 -215.50255859 242.81380859 -215.53808594 241.85058594 C-215.57728951 235.36815959 -214.32025364 230.87593067 -209.99609375 225.93359375 C-206.99609375 223.93359375 -206.99609375 223.93359375 -203.62109375 223.99609375 C-198.21382673 225.39452488 -196.06227052 228.50187066 -192.80859375 232.87109375 C-187.09115469 239.8034886 -178.46604681 242.86811397 -169.99609375 244.93359375 C-169.38378906 245.11535156 -168.77148438 245.29710937 -168.140625 245.484375 C-152.84370422 248.68864802 -137.24558462 243.33945584 -122.70703125 239.1015625 C-112.01175438 236.0285738 -101.18695707 233.45286227 -90.38378906 230.79077148 C-79.95711629 228.21806057 -69.56388367 225.5813689 -59.22723389 222.66635132 C-52.68676486 220.8276031 -46.10764817 219.18525051 -39.49609375 217.62109375 C-38.40167969 217.35748047 -37.30726563 217.09386719 -36.1796875 216.82226562 C-28.26198255 214.93359375 -28.26198255 214.93359375 -25.99609375 214.93359375 C-25.90321388 201.30294681 -25.83223732 187.67237578 -25.78884506 174.04147625 C-25.76801383 167.71137461 -25.73977741 161.38149028 -25.69433594 155.05151367 C-25.65071953 148.93716624 -25.6269231 142.8230272 -25.61658478 136.70853615 C-25.60922177 134.38145482 -25.59484378 132.05438427 -25.57317352 129.7273922 C-25.5439302 126.45562907 -25.54014656 123.1847156 -25.54199219 119.9128418 C-25.52042053 118.48539642 -25.52042053 118.48539642 -25.49841309 117.02911377 C-25.56950608 105.30208987 -30.2049065 95.58125903 -37.99609375 86.93359375 C-42.23185278 83.31367203 -46.63242423 81.0357208 -51.80859375 79.05859375 C-55.33642355 77.59943902 -56.77229394 76.28757785 -58.49609375 72.87109375 C-61.60689132 65.3677348 -62.87143521 56.84296978 -59.90234375 49.0703125 C-58.41685543 46.52996944 -56.81704349 44.24417665 -54.99609375 41.93359375 C-54.47789062 41.24910156 -53.9596875 40.56460938 -53.42578125 39.859375 C-44.66519611 29.08851067 -32.28394395 21.42018078 -21.08447266 13.42578125 C-18.27580431 11.41893288 -15.47793893 9.39784479 -12.68359375 7.37109375 C-11.48283203 6.50291016 -11.48283203 6.50291016 -10.2578125 5.6171875 C-7.89410909 3.92522418 -7.89410909 3.92522418 -5.578125 1.65625 C-2.99609375 -0.06640625 -2.99609375 -0.06640625 0 0 Z " fill="#B93C3C" transform="translate(380.99609375,5.06640625)"/>
<path d="M0 0 C1.09393066 -0.01039307 2.18786133 -0.02078613 3.31494141 -0.03149414 C10.36195072 0.04859806 17.61292282 0.54520115 23.25 5.1875 C24.71056046 8.94322691 23.87579993 12.58960285 22.37548828 16.28222656 C21.3243183 18.43490887 20.22715496 20.56046863 19.125 22.6875 C13.80681074 33.42778806 9.38068308 44.47777014 5 55.625 C4.63946533 56.54157379 4.27893066 57.45814758 3.9074707 58.40249634 C-0.19937512 68.86258892 -4.23472926 79.34896256 -8.2109375 89.859375 C-8.56302277 90.78893509 -8.91510803 91.71849518 -9.27786255 92.67622375 C-10.94833454 97.08986069 -12.61115436 101.50607082 -14.25830078 105.9284668 C-17.46639124 114.4907258 -20.87001461 122.93275724 -24.59375 131.28515625 C-25.143797 132.52742226 -25.143797 132.52742226 -25.70495605 133.79478455 C-30.24448617 143.80698617 -30.24448617 143.80698617 -33.875 147.4375 C-36.21753782 147.53242722 -38.53046104 147.56309791 -40.87329102 147.55102539 C-41.97078674 147.55124443 -41.97078674 147.55124443 -43.0904541 147.5514679 C-45.51996784 147.55076867 -47.94940583 147.54297585 -50.37890625 147.53515625 C-52.05899514 147.5332921 -53.73908457 147.53186819 -55.41917419 147.53086853 C-59.84973643 147.52704307 -64.2802661 147.51721256 -68.71081543 147.50616455 C-73.22842976 147.49595103 -77.74604934 147.49137104 -82.26367188 147.48632812 C-91.13412893 147.47559031 -100.00456176 147.45851356 -108.875 147.4375 C-109.11562993 117.684237 -108.90906865 87.98642102 -107.9375 58.25 C-107.89347624 56.87816421 -107.84946975 55.50632787 -107.80548096 54.13449097 C-107.6796273 50.24179474 -107.5460205 46.34939184 -107.41015625 42.45703125 C-107.37155991 41.31535492 -107.33296356 40.17367859 -107.29319763 38.99740601 C-107.02765869 31.7881993 -106.53769288 24.621014 -105.875 17.4375 C-93.82120557 14.01619872 -81.65961674 11.38341512 -69.375 8.9375 C-68.3880011 8.74084747 -67.4010022 8.54419495 -66.38409424 8.34158325 C-44.35672889 3.98040393 -22.52996516 0.18608367 0 0 Z " fill="#F4EFEA" transform="translate(515.875,236.5625)"/>
<path d="M0 0 C0.13337149 9.90476301 0.26387607 19.80955984 0.39115143 29.71440315 C0.45039295 34.31840942 0.51046317 38.92240108 0.57275391 43.52636719 C0.91237483 68.68577946 1.07110226 93.83827863 1 119 C-36.9119632 121.19600725 -36.9119632 121.19600725 -51.6875 121.3125 C-53.21491821 121.33860352 -53.21491821 121.33860352 -54.77319336 121.36523438 C-55.69753174 121.36458984 -56.62187012 121.36394531 -57.57421875 121.36328125 C-58.75890747 121.36775269 -58.75890747 121.36775269 -59.9675293 121.37231445 C-62.69210186 120.87321858 -63.38407147 120.26224292 -65 118 C-65.96049493 115.54513794 -66.79275763 113.15310066 -67.56640625 110.640625 C-68.05114323 109.12797369 -68.5362662 107.61544603 -69.02172852 106.10302734 C-69.27270294 105.3106366 -69.52367737 104.51824585 -69.78225708 103.70184326 C-77.56258567 79.25285981 -86.23360463 54.93204302 -102.87207031 34.95483398 C-104.32148115 32.44283559 -104.38275604 30.85541235 -104 28 C-99.61197719 24.11802089 -95.13766976 23.05421174 -89.5625 22 C-87.94738801 21.6679255 -86.33280856 21.33325121 -84.71875 20.99609375 C-83.91953125 20.83093262 -83.1203125 20.66577148 -82.296875 20.49560547 C-77.14568229 19.38411299 -72.07924477 17.93515907 -66.99853516 16.54296875 C-63.25525376 15.52598148 -59.50198762 14.54677777 -55.75 13.5625 C-54.1262977 13.13543332 -52.50259981 12.70834989 -50.87890625 12.28125 C-47.69976906 11.44580085 -44.52003611 10.61267284 -41.33984375 9.78125 C-39.78904541 9.37506526 -38.23826417 8.96881518 -36.6875 8.5625 C-35.92195801 8.36253418 -35.15641602 8.16256836 -34.36767578 7.95654297 C-29.93096266 6.79168811 -25.50688477 5.58904929 -21.08984375 4.3515625 C-20.09702393 4.07497803 -19.1042041 3.79839355 -18.08129883 3.51342773 C-16.15119733 2.97419796 -14.22256525 2.42967263 -12.2956543 1.87915039 C-11.4169165 1.63414795 -10.53817871 1.38914551 -9.6328125 1.13671875 C-8.85824707 0.91717529 -8.08368164 0.69763184 -7.28564453 0.47143555 C-4.80118128 -0.04100822 -2.53025012 -0.03162854 0 0 Z " fill="#F4EFEA" transform="translate(356,268)"/>
</svg>
