<?xml version="1.0" encoding="UTF-8"?>
<svg version="1.1" xmlns="http://www.w3.org/2000/svg" width="1000" height="1000">
<path d="M0 0 C0.79604954 -0.00350607 1.59209907 -0.00701215 2.41227132 -0.01062447 C5.06624631 -0.01989086 7.71999956 -0.01502752 10.37398338 -0.01015663 C12.30146887 -0.0138953 14.22895284 -0.01849768 16.15643442 -0.02388728 C21.44309504 -0.03610605 26.72969234 -0.03585812 32.01636386 -0.03349853 C37.72207725 -0.03309007 43.42777041 -0.04413227 49.13347435 -0.05361366 C60.30874255 -0.0702188 71.48398966 -0.075723 82.65926917 -0.07683842 C91.74502794 -0.07778918 100.83077976 -0.08190089 109.91653633 -0.08823967 C131.49316058 -0.1029861 153.06977834 -0.11528953 174.64640808 -0.11424255 C175.68096735 -0.11419582 175.68096735 -0.11419582 176.73642681 -0.11414814 C180.231935 -0.11398193 183.72744318 -0.11378385 187.22295137 -0.11357872 C187.91713811 -0.11353883 188.61132486 -0.11349894 189.32654756 -0.11345784 C190.73036244 -0.11337697 192.13417731 -0.11329337 193.53799218 -0.11320706 C215.37107506 -0.111982 237.20409578 -0.12698791 259.03716087 -0.15435219 C283.58238931 -0.18510326 308.12757295 -0.20225751 332.67282236 -0.20042574 C345.6629051 -0.1997622 358.65291774 -0.20523876 371.64298439 -0.22678185 C382.7040541 -0.24500845 393.76502194 -0.2493288 404.82610019 -0.235763 C410.46643451 -0.22924072 416.10657347 -0.22908956 421.74688911 -0.2464695 C426.91751588 -0.26223784 432.08779301 -0.25929806 437.25841145 -0.24190123 C439.12179022 -0.23883962 440.98519532 -0.24243184 442.848543 -0.25362138 C457.05825341 -0.33325142 470.0746651 1.19468045 482.87553978 7.94476891 C483.53755394 8.2865316 484.1995681 8.6282943 484.8816433 8.98041344 C503.7941289 19.10284723 517.34365136 36.90200257 523.62553978 57.25726891 C525.55199424 64.1418162 525.91082265 70.64658786 525.88280869 77.77082062 C525.88631476 78.90623326 525.88982083 80.04164591 525.89343315 81.211465 C525.90274431 85.01984216 525.89782445 88.82806631 525.89296532 92.63644981 C525.89559849 95.39302244 525.90122351 98.14958721 525.90669596 100.90615547 C525.91699022 106.90157676 525.91984075 112.89696576 525.91778374 118.89239502 C525.91473225 127.80814321 525.92306103 136.7238557 525.93353299 145.63959695 C525.95287261 162.49081626 525.95850121 179.34202341 525.9596471 196.19325252 C525.96056632 209.20778673 525.96468366 222.22231617 525.97104836 235.23684883 C525.97284346 238.98358499 525.97462308 242.73032116 525.97639811 246.47705734 C525.97706125 247.87425185 525.97706125 247.87425185 525.9777378 249.29967252 C525.99004597 275.49963932 525.99793895 301.69960446 525.99705124 327.89957428 C525.99702008 328.88733537 525.99698892 329.87509647 525.99695682 330.89278971 C525.99679061 335.8991243 525.99659253 340.9054589 525.99638741 345.91179349 C525.99632757 347.40319491 525.99632757 347.40319491 525.99626653 348.92472566 C525.99618565 350.93537752 525.99610206 352.94602938 525.99601574 354.95668124 C525.99479039 386.23528114 526.00980072 417.51383767 526.03716087 448.79242516 C526.06789088 483.93793067 526.0850928 519.08340769 526.08323443 554.22892749 C526.08308517 557.97754979 526.08298776 561.72617209 526.0829258 565.47479439 C526.08289083 566.85929112 526.08289083 566.85929112 526.08285516 568.27175749 C526.08279365 583.11682201 526.09555835 597.96184885 526.11279033 612.80690218 C526.12975511 627.73060415 526.13171403 642.65425106 526.11857168 657.57795735 C526.11118808 666.43983314 526.11482281 675.30154152 526.13445636 684.16339953 C526.14647407 690.08930466 526.14384545 696.0150888 526.12951537 701.94098842 C526.12176721 705.31329905 526.12238516 708.68502327 526.13643007 712.05735232 C526.20101224 728.66697421 525.82341631 743.5786522 517.87553978 758.56976891 C517.53264915 759.23363609 517.18975853 759.89750328 516.83647728 760.58148766 C513.74752268 766.37609592 510.06111159 771.40969734 505.62553978 776.25726891 C505.03514915 776.93918297 504.44475853 777.62109703 503.83647728 778.32367516 C494.49200789 788.48330038 479.31946617 797.64970217 465.62553978 800.25726891 C462.96692386 800.35435926 460.33465753 800.39849774 457.67611694 800.39428329 C456.86527655 800.39693512 456.05443615 800.39958695 455.21902484 800.40231913 C452.48469605 800.41001739 449.75041213 800.41057151 447.01607323 800.41116905 C445.04269365 800.41518334 443.06931489 800.41962151 441.09593713 800.42444861 C435.65924829 800.43642396 430.22256833 800.44206481 424.78586888 800.44662976 C418.92739672 800.45258231 413.06893519 800.46419312 407.2104702 800.47492027 C393.7232846 800.49829381 380.23609572 800.51285333 366.74889608 800.52514969 C362.08138831 800.52940524 357.41388095 800.53398415 352.74637365 800.53873301 C327.92081899 800.56397094 303.09526377 800.58604134 278.2696991 800.59846115 C272.51803269 800.60138241 266.7663663 800.60434994 261.01469994 800.60736656 C259.94285645 800.60792293 259.94285645 800.60792293 258.84935957 800.60849053 C235.69304288 800.62064006 212.53680229 800.65157408 189.38052133 800.69328809 C165.56789847 800.73610606 141.75531581 800.76270609 117.94265342 800.76793587 C114.57691236 800.76867627 111.21117136 800.76958695 107.84543037 800.77059364 C107.18304807 800.77078426 106.52066576 800.77097487 105.83821126 800.77117126 C95.85127227 800.77446316 85.86444603 800.79183291 75.8775425 800.81648445 C64.50999289 800.8444978 53.14258793 800.8554786 41.77500649 800.84428899 C35.97681575 800.83910557 30.17892784 800.84196907 24.38078117 800.86675453 C19.06685702 800.88928001 13.75345267 800.88848112 8.43951921 800.86955066 C6.52284071 800.8667553 4.6061267 800.87232317 2.68950517 800.8873636 C-19.61710646 801.05162932 -36.78789746 793.28644858 -53.06196022 777.88226891 C-72.6240062 757.49559335 -74.98024864 733.89897795 -74.88239479 707.11896324 C-74.8847923 704.36530325 -74.89320133 701.61166863 -74.90130377 698.85802031 C-74.91568377 692.89060521 -74.9153537 686.92333513 -74.90511513 680.95591354 C-74.88993126 672.08189883 -74.89774801 663.20800554 -74.90994836 654.33399154 C-74.93097318 638.48137653 -74.92920099 622.62882613 -74.91763271 606.77620502 C-74.907559 592.90308004 -74.90494903 579.0299787 -74.90972328 565.15685081 C-74.91002882 564.23557934 -74.91033436 563.31430787 -74.91064916 562.36511908 C-74.91189457 558.6251061 -74.91316818 554.88509313 -74.91448822 551.14508017 C-74.92671627 516.08159122 -74.91564298 481.01814335 -74.89410063 445.95466074 C-74.87511909 414.82259796 -74.87681764 383.69060064 -74.8959446 352.55853844 C-74.91737655 317.5579956 -74.92584896 282.55748904 -74.91349554 247.55694056 C-74.91221273 243.82385604 -74.91096136 240.09077152 -74.90972328 236.357687 C-74.90940697 235.4385484 -74.90909066 234.5194098 -74.90876477 233.57241852 C-74.90422042 219.7101311 -74.90952564 205.84786995 -74.91964149 191.98558617 C-74.93108986 176.21897252 -74.92819508 160.45243343 -74.90651852 144.68582904 C-74.89479512 135.86856982 -74.89397506 127.05147217 -74.90910322 118.23421722 C-74.91810299 112.33701253 -74.91243625 106.43993679 -74.89508414 100.54275114 C-74.88561243 97.18778615 -74.88444896 93.8334021 -74.89670807 90.47840756 C-74.98825903 63.33518276 -70.1693319 41.92460145 -50.96821022 21.72601891 C-37.22644758 8.69811406 -19.1139507 -0.10868752 0 0 Z M259.16374016 82.22290611 C256.31773659 82.94685439 253.46995465 83.66366449 250.62214088 84.38045311 C234.88961294 88.34094988 219.18773848 92.40682806 203.51231956 96.58804893 C148.98145681 111.11684744 95.02814667 119.60174781 38.53471947 113.94794273 C37.56953392 113.85150475 36.60434837 113.75506676 35.60991478 113.65570641 C34.76138939 113.56595543 33.912864 113.47620445 33.03862572 113.38373375 C26.95797978 113.06505967 22.31220102 114.3612436 17.62553978 118.25726891 C14.35353939 121.2868989 13.43418327 123.29331956 13.25053978 127.75726891 C13.36166614 135.45832536 16.64598546 141.62900178 21.93803978 147.13226891 C36.20656526 158.45143437 65.4834002 158.3473821 82.94194603 158.49555016 C83.90352119 158.50538933 84.86509636 158.5152285 85.85581017 158.52536583 C121.48346535 158.81415602 154.82359869 154.46746542 189.62553978 147.25726891 C191.63577426 146.84148487 193.64602909 146.42579922 195.6563015 146.01019859 C196.70256706 145.79384758 197.74883263 145.57749657 198.82680321 145.35458946 C203.16705168 144.45811755 207.50803747 143.5652355 211.84892845 142.67188072 C214.96265233 142.02802696 218.07444493 141.37545555 221.18608665 140.72162437 C286.50448506 127.11409726 357.84250608 135.59146883 418.57182884 164.49432945 C421.91080406 165.73473572 424.2807102 165.28644724 427.62553978 164.25726891 C433.68210152 160.94058033 436.37905082 154.28646023 438.34819603 147.92133141 C438.87311148 145.70502174 439.28225282 143.5085927 439.62553978 141.25726891 C439.73639915 140.55086266 439.84725853 139.84445641 439.96147728 139.11664391 C441.99161377 123.86318596 441.23052987 104.74880312 435.62553978 90.25726891 C432.61733583 86.40059717 429.42852605 83.70284528 424.51225853 82.92133141 C418.62821139 82.81681902 415.4369396 83.83377288 410.62553978 87.25726891 C409.73866478 88.14414391 408.85178978 89.03101891 407.93803978 89.94476891 C404.77449539 93.10831329 401.98845805 93.40811167 397.62553978 93.50726891 C388.17606935 93.33770255 380.3180336 90.26973156 372.02446556 85.95087242 C355.19509983 77.29947681 335.03617863 73.4603367 316.25053978 72.25726891 C315.55291527 72.20345055 314.85529076 72.14963219 314.13652611 72.09418297 C295.67202594 71.35101032 276.86972556 77.70810195 259.16374016 82.22290611 Z M273.63335228 262.12836266 C273.01202415 262.64527672 272.39069603 263.16219078 271.75053978 263.69476891 C271.06346947 264.26324547 270.37639915 264.83172203 269.66850853 265.41742516 C265.36037276 269.29721856 261.38215899 273.34109059 257.62553978 277.75726891 C255.18208657 280.62860794 252.59850442 283.27910136 249.88335228 285.89008141 C249.20659447 286.54556969 248.52983665 287.20105797 247.83257103 287.87640953 C246.46287115 289.19599844 245.08285516 290.50497667 243.69194603 291.80219078 C240.75835021 294.63800007 238.86485892 296.57574762 237.49663353 300.47211266 C237.65153388 303.8188991 238.25815232 304.80918517 240.56303978 307.19476891 C241.53757103 308.21377281 241.53757103 308.21377281 242.53178978 309.25336266 C245.14052436 311.75015527 247.82703563 314.12987896 250.57475853 316.47211266 C264.74432038 328.80637888 264.74432038 328.80637888 265.71269798 337.76361656 C265.52196492 343.22061234 263.30273582 348.34363187 261.50053978 353.44476891 C258.73538848 361.43374051 256.33552169 369.1237867 254.96391869 377.47064781 C253.18667528 387.91874154 253.18667528 387.91874154 250.03667259 390.61957359 C244.36894324 393.75648588 238.03408265 394.4914272 231.62553978 394.25726891 C230.80579715 392.21849941 229.99505908 390.17610815 229.18803978 388.13226891 C228.50934837 386.42683922 228.50934837 386.42683922 227.81694603 384.68695641 C223.19640299 371.38585219 225.11268749 357.84834745 229.53178978 344.86664391 C230.49395732 341.69149103 231.05819261 339.5197051 230.62553978 336.25726891 C226.63852492 331.3321329 222.43353552 328.60826837 216.12553978 327.81976891 C211.1122126 328.4464348 208.21907024 330.51728707 204.84038353 334.20648766 C201.58466381 338.69099753 199.03835853 343.52892973 196.37553978 348.38226891 C192.28597788 355.74382553 188.18729354 362.80484232 183.01616478 369.46430016 C180.62546299 372.54669375 180.38636036 374.7093302 180.25053978 378.56976891 C180.17706322 379.98709312 180.17706322 379.98709312 180.10210228 381.43305016 C180.83052969 385.36329657 182.64148473 386.65957911 185.62553978 389.25726891 C186.56913353 390.11707359 187.51272728 390.97687828 188.48491478 391.86273766 C190.42167363 393.59273441 192.35918135 395.32189314 194.29741478 397.05023766 C196.62553978 399.25726891 196.62553978 399.25726891 197.62553978 401.25726891 C150.80070909 401.69910878 105.02086155 398.17531167 58.7590847 390.86932945 C35.82797475 386.83424269 35.82797475 386.83424269 14.62553978 394.25726891 C12.06249475 398.10183645 12.03483455 399.6793034 12.62553978 404.25726891 C17.02707902 414.06542328 25.48596053 419.17533347 35.12553978 423.06976891 C45.10340376 426.83718404 55.42846281 427.75638469 65.97246361 428.63495445 C68.16012582 428.81744044 70.34692851 429.00827531 72.5337429 429.20062828 C76.89571456 429.57948959 81.25990681 429.92358595 85.62553978 430.25726891 C87.53351341 430.40736412 87.53351341 430.40736412 89.48003197 430.56049156 C103.55299888 431.53461187 117.64953016 431.5008731 131.75053978 431.50726891 C132.75021341 431.50793169 132.75021341 431.50793169 133.77008247 431.50860786 C153.88043774 431.51559077 173.71056494 431.31028655 193.62553978 428.25726891 C194.68482689 428.10161461 195.744114 427.94596031 196.83550072 427.78558922 C221.76459099 423.9974563 246.25695439 417.12867657 270.58257103 410.59711266 C308.6418508 400.3832202 346.93897619 393.00930641 386.39233971 390.94315147 C388.46453448 390.83462001 390.53635828 390.72036691 392.6082058 390.60541344 C395.29494252 390.45645815 397.9794214 390.33065389 400.66826439 390.21771812 C411.51426984 389.63591857 423.13659113 387.62657205 431.62553978 380.25726891 C434.29801279 377.10360269 435.62553978 374.35537806 435.62553978 370.13226891 C434.15971891 365.91803391 432.62577897 363.33900135 428.60307884 361.16351891 C421.85618268 358.26375401 416.1055281 357.70001295 408.81303978 357.88226891 C407.12839622 357.90595543 407.12839622 357.90595543 405.40971947 357.93012047 C365.34539157 358.71526186 325.42959463 363.56190927 287.62553978 377.25726891 C287.45080679 363.62809585 293.06664669 353.228685 302.34428978 343.56976891 C303.47350853 342.42508141 303.47350853 342.42508141 304.62553978 341.25726891 C306.11656513 339.66411853 307.59630133 338.06030691 309.06303978 336.44476891 C309.70112572 335.75769859 310.33921165 335.07062828 310.99663353 334.36273766 C313.29913425 331.38660363 314.76413339 329.17801894 314.48369408 325.29144859 C313.32811153 318.96395501 310.53066116 313.73728915 307.37553978 308.19476891 C306.59122581 306.7886837 306.59122581 306.7886837 305.79106712 305.35419273 C304.08540723 302.31239072 302.35893306 299.28334616 300.62553978 296.25726891 C300.01935814 295.197015 299.4131765 294.13676109 298.78862572 293.04437828 C294.79422166 286.07988398 290.78802322 279.12294505 286.62553978 272.25726891 C286.10701439 271.39053551 285.588489 270.52380211 285.05425072 269.63080406 C284.29676537 268.41916588 284.29676537 268.41916588 283.52397728 267.18305016 C283.08489037 266.47189049 282.64580345 265.76073082 282.19341087 265.02802086 C279.82089411 262.34850294 277.07961199 260.6214687 273.63335228 262.12836266 Z M305.17241478 427.87445641 C304.19083397 428.04908913 303.20925316 428.22372185 302.19792747 428.40364647 C290.94733405 430.47044085 279.84374107 433.15320293 268.72603416 435.83060265 C247.79576664 440.8541436 227.00142121 445.59272414 205.62553978 448.25726891 C204.72819115 448.37602379 203.83084251 448.49477867 202.9063015 448.61713219 C181.87093135 451.33511817 160.18390394 451.49004891 139.00053978 451.13226891 C130.56222047 451.02794632 123.86131398 452.21045756 117.62553978 458.25726891 C110.24824713 469.32320788 117.24469787 492.43926387 118.85559654 504.96490669 C119.21976997 507.80452175 119.57798256 510.64487793 119.9364872 513.48521328 C120.86757916 520.85801284 121.81421898 528.22873544 122.76769447 535.59867001 C123.42917404 540.7178019 124.08003198 545.83819954 124.72514915 550.95941734 C125.59069917 557.82791472 126.47420776 564.69388484 127.37090111 571.55838585 C127.70583746 574.13783732 128.03579893 576.71793992 128.3606472 579.29868126 C128.81394093 582.88471693 129.28733393 586.46753505 129.76616478 590.05023766 C129.95961479 591.63014992 129.95961479 591.63014992 130.15697289 593.2419796 C130.94545642 598.95567725 131.84956495 602.82769124 135.62553978 607.25726891 C138.8666518 609.44149657 140.776844 610.25726891 144.68803978 610.25726891 C148.55929815 608.93939372 150.09516287 607.48308053 152.62553978 604.25726891 C153.31312666 601.2137445 153.32552429 598.24340796 153.31303978 595.13226891 C153.32964501 593.52539342 153.35406393 591.9185748 153.38725853 590.31195641 C153.3868557 589.60538902 153.38645287 588.89882164 153.38603783 588.17084312 C153.62553978 586.25726891 153.62553978 586.25726891 155.62553978 583.25726891 C158.97006152 582.14242833 161.97006751 581.84408689 165.48100853 581.50336266 C166.14264503 581.43818947 166.80428154 581.37301628 167.48596764 581.30586815 C169.59468811 581.09890745 171.70383972 580.89677748 173.81303978 580.69476891 C175.2447115 580.55511335 176.67635256 580.41514309 178.10796165 580.27484703 C181.61347289 579.93200474 185.11938685 579.59349268 188.62553978 579.25726891 C188.29553978 580.24726891 187.96553978 581.23726891 187.62553978 582.25726891 C187.38949547 584.80421613 187.2024065 587.32988332 187.06303978 589.88226891 C187.02058128 590.62339928 186.97812279 591.36452965 186.93437767 592.12811852 C186.51373025 600.1728947 186.55212156 608.20478176 186.62553978 616.25726891 C185.68331566 616.30552818 184.74109154 616.35378746 183.77031517 616.40350914 C170.84384544 617.09855063 157.95848142 618.19898233 145.06303978 619.31976891 C142.87620885 619.50812937 140.68935999 619.69628176 138.5024929 619.88422203 C133.20996656 620.33951156 127.91766546 620.79734687 122.62553978 621.25726891 C122.37506386 620.39089806 122.37506386 620.39089806 122.11952782 619.50702477 C120.06993922 612.5357216 117.75259288 605.67719952 115.35210228 598.81976891 C114.74366982 597.07868858 114.74366982 597.07868858 114.12294579 595.30243492 C113.26863941 592.8614775 112.41303759 590.42097312 111.55620384 587.98090172 C110.25519435 584.2705433 108.96372438 580.55694992 107.67241478 576.84320641 C106.83706452 574.46018797 106.00114585 572.0773687 105.16460228 569.69476891 C104.78421806 568.59656822 104.40383385 567.49836754 104.01192284 566.36688805 C100.18838636 555.54582128 96.40519239 544.92506047 86.12553978 538.75726891 C81.41521548 537.81520405 77.87711844 538.47850885 73.81303978 541.00726891 C70.34609922 544.57326491 69.32283103 548.2376525 69.22319603 553.14789391 C69.35772333 559.80532756 71.27612285 565.72520921 73.38658714 571.99677086 C74.55662915 575.47427549 75.67433781 578.96875047 76.80132103 582.46039391 C77.03458092 583.17775719 77.26784081 583.89512047 77.50816917 584.63422203 C80.09579456 592.62477004 82.43293597 600.68505448 84.75053978 608.75726891 C85.14429044 610.12414476 85.53808795 611.49100712 85.93193626 612.85785484 C86.83269341 615.99017703 87.73075638 619.12323604 88.62553978 622.25726891 C66.40094501 621.62572792 44.47987164 620.68406162 22.60332298 616.4904232 C13.60902053 614.77598233 13.60902053 614.77598233 5.25053978 617.81976891 C2.99224265 621.2072146 2.3572631 624.26212164 2.62553978 628.25726891 C3.54157262 632.23651556 5.13691129 635.09944675 8.38335228 637.62445641 C34.74900271 652.0830389 69.03919406 656.28667612 98.62553978 657.25726891 C98.72713402 657.94877037 98.82872826 658.64027184 98.93340111 659.35272789 C100.14695867 667.14170102 101.81522043 674.74988293 103.80986595 682.37567711 C104.14519522 683.67127485 104.47171368 684.96918517 104.78935814 686.2692318 C107.61119537 697.81627678 112.21727274 706.99370486 120.25053978 715.75726891 C120.9646804 716.55133141 121.67882103 717.34539391 122.41460228 718.16351891 C125.81899223 721.38746416 128.44551931 723.10976635 133.12553978 723.69476891 C137.47001555 723.15170943 138.76172923 722.58548117 141.62553978 719.25726891 C144.3840911 713.38722031 145.82705102 707.68510346 146.62553978 701.25726891 C148.02739525 701.58211266 148.02739525 701.58211266 149.45757103 701.91351891 C170.61271157 706.52208323 189.24707755 704.69018158 208.73491478 695.33148766 C211.62553978 694.25726891 211.62553978 694.25726891 213.77788353 694.37055016 C216.12108761 695.49508996 217.59352331 696.92366673 219.43803978 698.75726891 C230.58132109 708.92211576 244.92924334 715.27251054 258.62553978 721.25726891 C259.26378685 721.5361898 259.90203392 721.8151107 260.55962181 722.10248375 C298.40195259 738.1877988 347.13111142 724.65656746 384.87553978 715.19476891 C387.42354317 714.56320835 389.97171966 713.93234578 392.52007103 713.30219078 C399.2266187 711.63876282 405.93225815 709.97341356 412.62553978 708.25726891 C413.65215721 707.99729118 414.67877464 707.73731346 415.73650169 707.46945763 C416.71405418 707.21453545 417.69160667 706.95961327 418.69878197 706.69696617 C419.56348106 706.47364113 420.42818016 706.25031609 421.31908226 706.02022362 C431.6289681 702.6098092 438.08977002 689.31717816 442.75053978 680.22601891 C448.53485971 668.37603485 451.47072854 658.46116813 447.46147728 645.49164391 C446.24619219 642.06979067 444.89387054 638.71159096 443.4946804 635.36127281 C442.61344571 633.22799173 441.78185428 631.07959712 440.95366478 628.92523766 C436.76773767 618.34007901 432.1477396 612.26354095 421.85332298 607.22064781 C418.07299206 605.58588772 414.17510417 604.57055747 410.18803978 603.56976891 C409.39333275 603.35771812 408.59862572 603.14566734 407.77983665 602.92719078 C399.46816667 600.78333449 391.30892188 600.10162776 382.74272728 600.12445641 C381.92539116 600.12349968 381.10805504 600.12254295 380.26595116 600.12155724 C378.54662053 600.12088147 376.82728727 600.12269329 375.10796165 600.12689781 C372.52782253 600.13221271 369.9478608 600.12695369 367.36772728 600.12055016 C357.40931037 600.11696619 347.55191805 600.43335511 337.62553978 601.25726891 C337.92944198 569.7936091 338.5788144 538.37592904 340.06303978 506.94476891 C340.15520271 504.97082649 340.15520271 504.97082649 340.24922752 502.95700645 C340.99793999 487.09980996 341.90011561 471.25760676 342.99381065 455.42076683 C344.58968248 441.11106273 344.58968248 441.11106273 339.12553978 428.38226891 C331.26523473 422.48704012 314.14393178 426.24672191 305.17241478 427.87445641 Z " fill="#000000" transform="translate(274.3744602203369,-0.25726890563964844)"/>
<path d="M0 0 C0.95777344 0.01675781 1.91554688 0.03351562 2.90234375 0.05078125 C12.98254789 0.56885342 23.4902819 4.12940684 31 11 C35.48304161 16.50313492 35.60354962 22.58520345 35.3828125 29.46484375 C34.4770354 37.82941803 31.31137048 46.22198477 25 52 C14.95505459 58.51033304 2.26274371 62.64916175 -9.703125 63.359375 C-26.64503773 64.51698281 -40.79637849 68.19811391 -56.23120117 75.23291016 C-67.0231412 80.05265734 -75.96679689 80.93124621 -87.125 76.9375 C-99.12139488 72.10292516 -110.89142006 65.09358062 -121 57 C-121 56.34 -121 55.68 -121 55 C-117.06667727 53.3854582 -113.1276366 51.78533317 -109.1875 50.1875 C-108.08728516 49.73568359 -106.98707031 49.28386719 -105.85351562 48.81835938 C-88.98180885 42 -88.98180885 42 -82 42 C-81.34 44.97 -80.68 47.94 -80 51 C-73.41922038 53.39387781 -67.07575578 53.34527294 -60.125 53.3125 C-58.92568848 53.30831055 -57.72637695 53.30412109 -56.49072266 53.29980469 C-35.79697883 53.1752902 -35.79697883 53.1752902 -18 44 C-16.69782841 29.9188903 -18.44475988 15.10693851 -19 1 C-12.65516981 -0.35508887 -6.46685799 -0.1464984 0 0 Z " fill="#000000" transform="translate(631,625)"/>
<path d="M0 0 C2.81954694 2.31988039 2.98945316 3.90631922 3.3984375 7.5390625 C3.41076883 8.90100825 3.40203429 10.26326675 3.375 11.625 C3.36774902 12.33487061 3.36049805 13.04474121 3.35302734 13.77612305 C3.16906241 20.81878057 1.94950597 27.07574104 -2 33 C-4.5326556 33.47957746 -6.8647717 33.76979914 -9.421875 33.94921875 C-10.15948059 34.01156204 -10.89708618 34.07390533 -11.65704346 34.13813782 C-14.02050495 34.33437532 -16.38500262 34.51084623 -18.75 34.6875 C-20.32822639 34.81713078 -21.90635353 34.94797612 -23.484375 35.08007812 C-35.80500154 36.08520238 -35.80500154 36.08520238 -42 36 C-42.88863409 29.66754866 -43.29382378 23.38656595 -43.5625 17 C-43.60568359 16.03449219 -43.64886719 15.06898438 -43.69335938 14.07421875 C-43.79841713 11.71625575 -43.90056914 9.35820584 -44 7 C-37.00289545 5.65127229 -30.00287205 4.31845683 -23 3 C-22.15308594 2.84031738 -21.30617188 2.68063477 -20.43359375 2.51611328 C-18.14436631 2.08758107 -15.85381855 1.66718829 -13.5625 1.25 C-12.88453369 1.12262451 -12.20656738 0.99524902 -11.50805664 0.86401367 C-7.62848487 0.16790542 -3.92735602 -0.47467325 0 0 Z " fill="#000000" transform="translate(551,458)"/>
<path d="M0 0 C0.9899261 4.0430315 1.04350619 7.68045501 0.87890625 11.83203125 C0.83056641 13.12431641 0.78222656 14.41660156 0.73242188 15.74804688 C0.67590949 17.10286994 0.61926724 18.45768759 0.5625 19.8125 C0.50922394 21.18682807 0.45648399 22.56117703 0.40429688 23.93554688 C0.2748033 27.29060765 0.13984284 30.64535727 0 34 C-2.70613563 35.35306781 -5.16817759 35.43491749 -8.1796875 35.75390625 C-9.41847656 35.88603516 -10.65726563 36.01816406 -11.93359375 36.15429688 C-13.23425781 36.28900391 -14.53492188 36.42371094 -15.875 36.5625 C-17.16792969 36.70107422 -18.46085938 36.83964844 -19.79296875 36.98242188 C-29.44742919 38 -29.44742919 38 -34 38 C-35.12374424 30.5209627 -35.32840762 23.05235745 -35.5625 15.5 C-35.60568359 14.200625 -35.64886719 12.90125 -35.69335938 11.5625 C-35.7988251 8.37509155 -35.90094448 5.18761302 -36 2 C-31.67760753 1.54491093 -27.35434629 1.09965843 -23.0300293 0.66333008 C-21.56035348 0.51366035 -20.09094422 0.36134784 -18.62182617 0.20629883 C-16.50504767 -0.01663314 -14.38747954 -0.22991367 -12.26953125 -0.44140625 C-10.99698486 -0.57232666 -9.72443848 -0.70324707 -8.41333008 -0.83813477 C-5.34478118 -0.98364996 -2.95391629 -0.77241086 0 0 Z " fill="#000000" transform="translate(549,572)"/>
<path d="M0 0 C-0.33 8.91 -0.66 17.82 -1 27 C-6.49974344 28.37493586 -11.98190985 28.63973797 -17.625 29.0625 C-18.76324219 29.15337891 -19.90148437 29.24425781 -21.07421875 29.33789062 C-26.25919024 29.73375814 -31.44596685 30.08403032 -36.64453125 30.23046875 C-37.41643799 30.25391357 -38.18834473 30.2773584 -38.98364258 30.30151367 C-41.52361912 29.92170122 -42.37812296 29.15844417 -44.0625 27.25 C-47.54857466 21.40239089 -47.52250984 15.6958669 -47 9 C-45.875 5.375 -45.875 5.375 -44 3 C-39.43574133 1.93047743 -34.78595845 1.72213079 -30.1171875 1.46484375 C-29.38049835 1.42186661 -28.6438092 1.37888947 -27.88479614 1.33460999 C-26.33685884 1.2449118 -24.78883147 1.156756 -23.24072266 1.07006836 C-20.87511597 0.9375065 -18.50981989 0.80021947 -16.14453125 0.66210938 C-14.63543247 0.57524577 -13.12631837 0.48864806 -11.6171875 0.40234375 C-10.91294647 0.36173325 -10.20870544 0.32112274 -9.48312378 0.27928162 C-6.31294969 0.10273153 -3.17688818 0 0 0 Z " fill="#000000" transform="translate(469,470)"/>
<path d="M0 0 C2.14089895 7.59045993 1.87216196 16.66003055 -1 24 C-4.74092606 25.87046303 -9.18926056 25.69763854 -13.3125 26.0625 C-14.30403076 26.15120361 -15.29556152 26.23990723 -16.31713867 26.33129883 C-23.515213 26.94321435 -30.77843191 27.55950888 -38 27 C-40.56667108 24.43332892 -39.49064546 17.4695083 -39.625 14 C-39.6765625 12.86820313 -39.728125 11.73640625 -39.78125 10.5703125 C-39.82507813 9.49523437 -39.86890625 8.42015625 -39.9140625 7.3125 C-39.9548291 6.31863281 -39.9955957 5.32476563 -40.03759766 4.30078125 C-40 2 -40 2 -39 1 C-36.37468618 0.67235871 -33.76736611 0.40326017 -31.1328125 0.17578125 C-30.34228485 0.10586472 -29.5517572 0.03594818 -28.73727417 -0.03608704 C-27.06123077 -0.18223643 -25.38496133 -0.32581269 -23.70849609 -0.46704102 C-21.14176018 -0.68606979 -18.57690491 -0.92179975 -16.01171875 -1.15820312 C-14.38550517 -1.29790906 -12.75920522 -1.43661394 -11.1328125 -1.57421875 C-10.36397736 -1.6470256 -9.59514221 -1.71983246 -8.80300903 -1.79484558 C-3.34293516 -2.22862344 -3.34293516 -2.22862344 0 0 Z " fill="#000000" transform="translate(550,518)"/>
<path d="M0 0 C-0.13839953 4.12528499 -0.2869741 8.25014108 -0.4375 12.375 C-0.47681641 13.550625 -0.51613281 14.72625 -0.55664062 15.9375 C-0.61948242 17.61972656 -0.61948242 17.61972656 -0.68359375 19.3359375 C-0.72025146 20.37282715 -0.75690918 21.4097168 -0.79467773 22.47802734 C-1 25 -1 25 -2 27 C-4.05029297 27.41064453 -4.05029297 27.41064453 -6.7421875 27.6328125 C-7.72703125 27.71660156 -8.711875 27.80039062 -9.7265625 27.88671875 C-10.76554687 27.96535156 -11.80453125 28.04398438 -12.875 28.125 C-13.8753125 28.21136719 -14.875625 28.29773438 -15.90625 28.38671875 C-20.96338587 28.79834609 -26.02127661 29.09664855 -31.09375 29.2265625 C-31.97482422 29.25057129 -32.85589844 29.27458008 -33.76367188 29.29931641 C-36 29 -36 29 -38.625 26.25 C-40.93126838 20.79882018 -41.60217429 15.89926678 -41 10 C-38.90909091 4.90909091 -38.90909091 4.90909091 -37 3 C-34.52023674 2.69739062 -32.05859576 2.45242251 -29.5703125 2.24609375 C-28.82417694 2.18092056 -28.07804138 2.11574738 -27.30929565 2.04859924 C-25.72737441 1.91123715 -24.14526382 1.77604121 -22.56298828 1.64282227 C-20.14184193 1.43891839 -17.72129369 1.2288614 -15.30078125 1.01757812 C-13.76565615 0.88505532 -12.2305008 0.75288239 -10.6953125 0.62109375 C-9.97022491 0.55860947 -9.24513733 0.49612518 -8.49807739 0.43174744 C-5.65410841 0.19308309 -2.85554265 0 0 0 Z " fill="#000000" transform="translate(466,523)"/>
<path d="M0 0 C1.32 5.28 2.64 10.56 4 16 C-5.6333805 18.79678789 -15.26106616 20.9149567 -25.125 22.75 C-26.3106958 22.97260498 -27.4963916 23.19520996 -28.71801758 23.42456055 C-29.8448999 23.62992432 -30.97178223 23.83528809 -32.1328125 24.046875 C-33.14230957 24.23088867 -34.15180664 24.41490234 -35.19189453 24.60449219 C-37.84039657 24.97752064 -40.33013291 25.0745534 -43 25 C-43.63440928 23.52484445 -44.25690827 22.04456668 -44.875 20.5625 C-45.22304688 19.73878906 -45.57109375 18.91507813 -45.9296875 18.06640625 C-47.3104478 14.11057837 -48.1611531 10.09996299 -49 6 C-48.38294189 5.92483154 -47.76588379 5.84966309 -47.13012695 5.7722168 C-34.93455827 4.28115891 -22.7534573 2.74025357 -10.6027832 0.91479492 C-9.790271 0.79467041 -8.97775879 0.6745459 -8.140625 0.55078125 C-7.08149902 0.39089722 -7.08149902 0.39089722 -6.00097656 0.2277832 C-4 0 -4 0 0 0 Z " fill="#000000" transform="translate(459,650)"/>
<path d="M0 0 C0 6.27 0 12.54 0 19 C-15.84 20.485 -15.84 20.485 -32 22 C-32.33 16.72 -32.66 11.44 -33 6 C-28.46117305 5.14467423 -23.92225132 4.2898901 -19.38305664 3.43652344 C-17.83774802 3.14583308 -16.29250042 2.85481817 -14.74731445 2.56347656 C-12.53092009 2.14563755 -10.3143115 1.72895248 -8.09765625 1.3125 C-7.4028566 1.18125732 -6.70805695 1.05001465 -5.99220276 0.91479492 C-1.11387171 0 -1.11387171 0 0 0 Z " fill="#000000" transform="translate(549,633)"/>
</svg>
