<?xml version="1.0" encoding="UTF-8"?>
<svg version="1.1" xmlns="http://www.w3.org/2000/svg" width="1970" height="1970">
<path d="M0 0 C0.79604954 -0.00350607 1.59209907 -0.00701215 2.41227132 -0.01062447 C5.06624631 -0.01989086 7.71999956 -0.01502752 10.37398338 -0.01015663 C12.30146887 -0.0138953 14.22895284 -0.01849768 16.15643442 -0.02388728 C21.44309504 -0.03610605 26.72969234 -0.03585812 32.01636386 -0.03349853 C37.72207725 -0.03309007 43.42777041 -0.04413227 49.13347435 -0.05361366 C60.30874255 -0.0702188 71.48398966 -0.075723 82.65926917 -0.07683842 C91.74502794 -0.07778918 100.83077976 -0.08190089 109.91653633 -0.08823967 C131.49316058 -0.1029861 153.06977834 -0.11528953 174.64640808 -0.11424255 C175.68096735 -0.11419582 175.68096735 -0.11419582 176.73642681 -0.11414814 C180.231935 -0.11398193 183.72744318 -0.11378385 187.22295137 -0.11357872 C187.91713811 -0.11353883 188.61132486 -0.11349894 189.32654756 -0.11345784 C190.73036244 -0.11337697 192.13417731 -0.11329337 193.53799218 -0.11320706 C215.37107506 -0.111982 237.20409578 -0.12698791 259.03716087 -0.15435219 C283.58238931 -0.18510326 308.12757295 -0.20225751 332.67282236 -0.20042574 C345.6629051 -0.1997622 358.65291774 -0.20523876 371.64298439 -0.22678185 C382.7040541 -0.24500845 393.76502194 -0.2493288 404.82610019 -0.235763 C410.46643451 -0.22924072 416.10657347 -0.22908956 421.74688911 -0.2464695 C426.91751588 -0.26223784 432.08779301 -0.25929806 437.25841145 -0.24190123 C439.12179022 -0.23883962 440.98519532 -0.24243184 442.848543 -0.25362138 C457.05825341 -0.33325142 470.0746651 1.19468045 482.87553978 7.94476891 C483.53755394 8.2865316 484.1995681 8.6282943 484.8816433 8.98041344 C503.7941289 19.10284723 517.34365136 36.90200257 523.62553978 57.25726891 C525.55199424 64.1418162 525.91082265 70.64658786 525.88280869 77.77082062 C525.88631476 78.90623326 525.88982083 80.04164591 525.89343315 81.211465 C525.90274431 85.01984216 525.89782445 88.82806631 525.89296532 92.63644981 C525.89559849 95.39302244 525.90122351 98.14958721 525.90669596 100.90615547 C525.91699022 106.90157676 525.91984075 112.89696576 525.91778374 118.89239502 C525.91473225 127.80814321 525.92306103 136.7238557 525.93353299 145.63959695 C525.95287261 162.49081626 525.95850121 179.34202341 525.9596471 196.19325252 C525.96056632 209.20778673 525.96468366 222.22231617 525.97104836 235.23684883 C525.97284346 238.98358499 525.97462308 242.73032116 525.97639811 246.47705734 C525.97706125 247.87425185 525.97706125 247.87425185 525.9777378 249.29967252 C525.99004597 275.49963932 525.99793895 301.69960446 525.99705124 327.89957428 C525.99702008 328.88733537 525.99698892 329.87509647 525.99695682 330.89278971 C525.99679061 335.8991243 525.99659253 340.9054589 525.99638741 345.91179349 C525.99632757 347.40319491 525.99632757 347.40319491 525.99626653 348.92472566 C525.99618565 350.93537752 525.99610206 352.94602938 525.99601574 354.95668124 C525.99479039 386.23528114 526.00980072 417.51383767 526.03716087 448.79242516 C526.06789088 483.93793067 526.0850928 519.08340769 526.08323443 554.22892749 C526.08308517 557.97754979 526.08298776 561.72617209 526.0829258 565.47479439 C526.08289083 566.85929112 526.08289083 566.85929112 526.08285516 568.27175749 C526.08279365 583.11682201 526.09555835 597.96184885 526.11279033 612.80690218 C526.12975511 627.73060415 526.13171403 642.65425106 526.11857168 657.57795735 C526.11118808 666.43983314 526.11482281 675.30154152 526.13445636 684.16339953 C526.14647407 690.08930466 526.14384545 696.0150888 526.12951537 701.94098842 C526.12176721 705.31329905 526.12238516 708.68502327 526.13643007 712.05735232 C526.20101224 728.66697421 525.82341631 743.5786522 517.87553978 758.56976891 C517.53264915 759.23363609 517.18975853 759.89750328 516.83647728 760.58148766 C513.74752268 766.37609592 510.06111159 771.40969734 505.62553978 776.25726891 C505.03514915 776.93918297 504.44475853 777.62109703 503.83647728 778.32367516 C494.49200789 788.48330038 479.31946617 797.64970217 465.62553978 800.25726891 C462.96692386 800.35435926 460.33465753 800.39849774 457.67611694 800.39428329 C456.86527655 800.39693512 456.05443615 800.39958695 455.21902484 800.40231913 C452.48469605 800.41001739 449.75041213 800.41057151 447.01607323 800.41116905 C445.04269365 800.41518334 443.06931489 800.41962151 441.09593713 800.42444861 C435.65924829 800.43642396 430.22256833 800.44206481 424.78586888 800.44662976 C418.92739672 800.45258231 413.06893519 800.46419312 407.2104702 800.47492027 C393.7232846 800.49829381 380.23609572 800.51285333 366.74889608 800.52514969 C362.08138831 800.52940524 357.41388095 800.53398415 352.74637365 800.53873301 C327.92081899 800.56397094 303.09526377 800.58604134 278.2696991 800.59846115 C272.51803269 800.60138241 266.7663663 800.60434994 261.01469994 800.60736656 C259.94285645 800.60792293 259.94285645 800.60792293 258.84935957 800.60849053 C235.69304288 800.62064006 212.53680229 800.65157408 189.38052133 800.69328809 C165.56789847 800.73610606 141.75531581 800.76270609 117.94265342 800.76793587 C114.57691236 800.76867627 111.21117136 800.76958695 107.84543037 800.77059364 C107.18304807 800.77078426 106.52066576 800.77097487 105.83821126 800.77117126 C95.85127227 800.77446316 85.86444603 800.79183291 75.8775425 800.81648445 C64.50999289 800.8444978 53.14258793 800.8554786 41.77500649 800.84428899 C35.97681575 800.83910557 30.17892784 800.84196907 24.38078117 800.86675453 C19.06685702 800.88928001 13.75345267 800.88848112 8.43951921 800.86955066 C6.52284071 800.8667553 4.6061267 800.87232317 2.68950517 800.8873636 C-19.61710646 801.05162932 -36.78789746 793.28644858 -53.06196022 777.88226891 C-72.6240062 757.49559335 -74.98024864 733.89897795 -74.88239479 707.11896324 C-74.8847923 704.36530325 -74.89320133 701.61166863 -74.90130377 698.85802031 C-74.91568377 692.89060521 -74.9153537 686.92333513 -74.90511513 680.95591354 C-74.88993126 672.08189883 -74.89774801 663.20800554 -74.90994836 654.33399154 C-74.93097318 638.48137653 -74.92920099 622.62882613 -74.91763271 606.77620502 C-74.907559 592.90308004 -74.90494903 579.0299787 -74.90972328 565.15685081 C-74.91002882 564.23557934 -74.91033436 563.31430787 -74.91064916 562.36511908 C-74.91189457 558.6251061 -74.91316818 554.88509313 -74.91448822 551.14508017 C-74.92671627 516.08159122 -74.91564298 481.01814335 -74.89410063 445.95466074 C-74.87511909 414.82259796 -74.87681764 383.69060064 -74.8959446 352.55853844 C-74.91737655 317.5579956 -74.92584896 282.55748904 -74.91349554 247.55694056 C-74.91221273 243.82385604 -74.91096136 240.09077152 -74.90972328 236.357687 C-74.90940697 235.4385484 -74.90909066 234.5194098 -74.90876477 233.57241852 C-74.90422042 219.7101311 -74.90952564 205.84786995 -74.91964149 191.98558617 C-74.93108986 176.21897252 -74.92819508 160.45243343 -74.90651852 144.68582904 C-74.89479512 135.86856982 -74.89397506 127.05147217 -74.90910322 118.23421722 C-74.91810299 112.33701253 -74.91243625 106.43993679 -74.89508414 100.54275114 C-74.88561243 97.18778615 -74.88444896 93.8334021 -74.89670807 90.47840756 C-74.98825903 63.33518276 -70.1693319 41.92460145 -50.96821022 21.72601891 C-37.22644758 8.69811406 -19.1139507 -0.10868752 0 0 Z " fill="#000000" transform="translate(74.37446022033691,544.7427310943604)"/>
<path d="M0 0 C0.79604954 -0.00350607 1.59209907 -0.00701215 2.41227132 -0.01062447 C5.06624631 -0.01989086 7.71999956 -0.01502752 10.37398338 -0.01015663 C12.30146887 -0.0138953 14.22895284 -0.01849768 16.15643442 -0.02388728 C21.44309504 -0.03610605 26.72969234 -0.03585812 32.01636386 -0.03349853 C37.72207725 -0.03309007 43.42777041 -0.04413227 49.13347435 -0.05361366 C60.30874255 -0.0702188 71.48398966 -0.075723 82.65926917 -0.07683842 C91.74502794 -0.07778918 100.83077976 -0.08190089 109.91653633 -0.08823967 C131.49316058 -0.1029861 153.06977834 -0.11528953 174.64640808 -0.11424255 C175.68096735 -0.11419582 175.68096735 -0.11419582 176.73642681 -0.11414814 C180.231935 -0.11398193 183.72744318 -0.11378385 187.22295137 -0.11357872 C187.91713811 -0.11353883 188.61132486 -0.11349894 189.32654756 -0.11345784 C190.73036244 -0.11337697 192.13417731 -0.11329337 193.53799218 -0.11320706 C215.37107506 -0.111982 237.20409578 -0.12698791 259.03716087 -0.15435219 C283.58238931 -0.18510326 308.12757295 -0.20225751 332.67282236 -0.20042574 C345.6629051 -0.1997622 358.65291774 -0.20523876 371.64298439 -0.22678185 C382.7040541 -0.24500845 393.76502194 -0.2493288 404.82610019 -0.235763 C410.46643451 -0.22924072 416.10657347 -0.22908956 421.74688911 -0.2464695 C426.91751588 -0.26223784 432.08779301 -0.25929806 437.25841145 -0.24190123 C439.12179022 -0.23883962 440.98519532 -0.24243184 442.848543 -0.25362138 C457.05825341 -0.33325142 470.0746651 1.19468045 482.87553978 7.94476891 C483.53755394 8.2865316 484.1995681 8.6282943 484.8816433 8.98041344 C503.7941289 19.10284723 517.34365136 36.90200257 523.62553978 57.25726891 C525.55199424 64.1418162 525.91082265 70.64658786 525.88280869 77.77082062 C525.88631476 78.90623326 525.88982083 80.04164591 525.89343315 81.211465 C525.90274431 85.01984216 525.89782445 88.82806631 525.89296532 92.63644981 C525.89559849 95.39302244 525.90122351 98.14958721 525.90669596 100.90615547 C525.91699022 106.90157676 525.91984075 112.89696576 525.91778374 118.89239502 C525.91473225 127.80814321 525.92306103 136.7238557 525.93353299 145.63959695 C525.95287261 162.49081626 525.95850121 179.34202341 525.9596471 196.19325252 C525.96056632 209.20778673 525.96468366 222.22231617 525.97104836 235.23684883 C525.97284346 238.98358499 525.97462308 242.73032116 525.97639811 246.47705734 C525.97706125 247.87425185 525.97706125 247.87425185 525.9777378 249.29967252 C525.99004597 275.49963932 525.99793895 301.69960446 525.99705124 327.89957428 C525.99702008 328.88733537 525.99698892 329.87509647 525.99695682 330.89278971 C525.99679061 335.8991243 525.99659253 340.9054589 525.99638741 345.91179349 C525.99632757 347.40319491 525.99632757 347.40319491 525.99626653 348.92472566 C525.99618565 350.93537752 525.99610206 352.94602938 525.99601574 354.95668124 C525.99479039 386.23528114 526.00980072 417.51383767 526.03716087 448.79242516 C526.06789088 483.93793067 526.0850928 519.08340769 526.08323443 554.22892749 C526.08308517 557.97754979 526.08298776 561.72617209 526.0829258 565.47479439 C526.08289083 566.85929112 526.08289083 566.85929112 526.08285516 568.27175749 C526.08279365 583.11682201 526.09555835 597.96184885 526.11279033 612.80690218 C526.12975511 627.73060415 526.13171403 642.65425106 526.11857168 657.57795735 C526.11118808 666.43983314 526.11482281 675.30154152 526.13445636 684.16339953 C526.14647407 690.08930466 526.14384545 696.0150888 526.12951537 701.94098842 C526.12176721 705.31329905 526.12238516 708.68502327 526.13643007 712.05735232 C526.20101224 728.66697421 525.82341631 743.5786522 517.87553978 758.56976891 C517.53264915 759.23363609 517.18975853 759.89750328 516.83647728 760.58148766 C513.74752268 766.37609592 510.06111159 771.40969734 505.62553978 776.25726891 C505.03514915 776.93918297 504.44475853 777.62109703 503.83647728 778.32367516 C494.49200789 788.48330038 479.31946617 797.64970217 465.62553978 800.25726891 C462.96692386 800.35435926 460.33465753 800.39849774 457.67611694 800.39428329 C456.86527655 800.39693512 456.05443615 800.39958695 455.21902484 800.40231913 C452.48469605 800.41001739 449.75041213 800.41057151 447.01607323 800.41116905 C445.04269365 800.41518334 443.06931489 800.41962151 441.09593713 800.42444861 C435.65924829 800.43642396 430.22256833 800.44206481 424.78586888 800.44662976 C418.92739672 800.45258231 413.06893519 800.46419312 407.2104702 800.47492027 C393.7232846 800.49829381 380.23609572 800.51285333 366.74889608 800.52514969 C362.08138831 800.52940524 357.41388095 800.53398415 352.74637365 800.53873301 C327.92081899 800.56397094 303.09526377 800.58604134 278.2696991 800.59846115 C272.51803269 800.60138241 266.7663663 800.60434994 261.01469994 800.60736656 C259.94285645 800.60792293 259.94285645 800.60792293 258.84935957 800.60849053 C235.69304288 800.62064006 212.53680229 800.65157408 189.38052133 800.69328809 C165.56789847 800.73610606 141.75531581 800.76270609 117.94265342 800.76793587 C114.57691236 800.76867627 111.21117136 800.76958695 107.84543037 800.77059364 C107.18304807 800.77078426 106.52066576 800.77097487 105.83821126 800.77117126 C95.85127227 800.77446316 85.86444603 800.79183291 75.8775425 800.81648445 C64.50999289 800.8444978 53.14258793 800.8554786 41.77500649 800.84428899 C35.97681575 800.83910557 30.17892784 800.84196907 24.38078117 800.86675453 C19.06685702 800.88928001 13.75345267 800.88848112 8.43951921 800.86955066 C6.52284071 800.8667553 4.6061267 800.87232317 2.68950517 800.8873636 C-19.61710646 801.05162932 -36.78789746 793.28644858 -53.06196022 777.88226891 C-72.6240062 757.49559335 -74.98024864 733.89897795 -74.88239479 707.11896324 C-74.8847923 704.36530325 -74.89320133 701.61166863 -74.90130377 698.85802031 C-74.91568377 692.89060521 -74.9153537 686.92333513 -74.90511513 680.95591354 C-74.88993126 672.08189883 -74.89774801 663.20800554 -74.90994836 654.33399154 C-74.93097318 638.48137653 -74.92920099 622.62882613 -74.91763271 606.77620502 C-74.907559 592.90308004 -74.90494903 579.0299787 -74.90972328 565.15685081 C-74.91002882 564.23557934 -74.91033436 563.31430787 -74.91064916 562.36511908 C-74.91189457 558.6251061 -74.91316818 554.88509313 -74.91448822 551.14508017 C-74.92671627 516.08159122 -74.91564298 481.01814335 -74.89410063 445.95466074 C-74.87511909 414.82259796 -74.87681764 383.69060064 -74.8959446 352.55853844 C-74.91737655 317.5579956 -74.92584896 282.55748904 -74.91349554 247.55694056 C-74.91221273 243.82385604 -74.91096136 240.09077152 -74.90972328 236.357687 C-74.90940697 235.4385484 -74.90909066 234.5194098 -74.90876477 233.57241852 C-74.90422042 219.7101311 -74.90952564 205.84786995 -74.91964149 191.98558617 C-74.93108986 176.21897252 -74.92819508 160.45243343 -74.90651852 144.68582904 C-74.89479512 135.86856982 -74.89397506 127.05147217 -74.90910322 118.23421722 C-74.91810299 112.33701253 -74.91243625 106.43993679 -74.89508414 100.54275114 C-74.88561243 97.18778615 -74.88444896 93.8334021 -74.89670807 90.47840756 C-74.98825903 63.33518276 -70.1693319 41.92460145 -50.96821022 21.72601891 C-37.22644758 8.69811406 -19.1139507 -0.10868752 0 0 Z M198.62553978 10.00726891 C193.1736324 14.3541177 187.5970547 18.46040398 181.87553978 22.44476891 C175.59694023 26.82994446 169.47467826 31.30412582 163.62553978 36.25726891 C162.76315697 36.97398766 161.90077415 37.69070641 161.01225853 38.42914391 C153.46475199 44.91440878 147.2939644 51.42731805 145.74272728 61.57367516 C145.46460082 67.94277105 146.61098097 73.83115001 149.06303978 79.69476891 C152.29704959 82.92877872 155.62917761 84.23283422 159.80913353 85.99164391 C170.33342914 90.72100837 175.63248418 98.99724225 179.75449944 109.44603157 C181.18734806 114.07047588 181.15061983 118.49973146 181.07964134 123.30658531 C181.08022545 124.3614312 181.08080956 125.41627708 181.08141136 126.503088 C181.07864669 129.95534888 181.0476306 133.40672321 181.01616478 136.85883141 C181.00869666 139.26592093 181.00300643 141.67301657 180.9990139 144.08011436 C180.9838027 150.38978674 180.94455949 156.6990859 180.90019798 163.00861168 C180.85914793 169.4573315 180.84098211 175.90611211 180.82085228 182.35492516 C180.77806112 194.98919818 180.71064244 207.62321361 180.62553978 220.25726891 C179.73796989 220.48118309 178.85040001 220.70509727 177.93593407 220.93579674 C169.35446872 223.1010657 160.7734611 225.26813882 152.19290924 227.43702507 C147.64418012 228.58674737 143.09530098 229.73586867 138.54607201 230.88361168 C112.50306857 237.44680231 112.50306857 237.44680231 86.52397728 244.25726891 C84.90929054 244.68758415 84.90929054 244.68758415 83.26198387 245.12659264 C78.48404084 246.40144296 73.71060995 247.68988991 68.94341087 249.00433922 C52.7335927 253.40212253 36.79579308 253.91340957 21.62553978 245.25726891 C17.01738956 242.40379326 13.60847311 239.46331876 10.50053978 235.00726891 C8.54085891 232.24034823 7.63232046 231.2610052 4.56303978 229.56976891 C1.62724464 229.04253059 1.62724464 229.04253059 -0.99946022 230.19476891 C-5.50831525 234.11035354 -8.02723187 239.23588012 -8.54242897 245.20258141 C-8.59345955 250.89759461 -8.17522699 256.53125728 -7.62446022 262.19476891 C-7.56282692 262.92131676 -7.50119362 263.64786461 -7.43769264 264.39642906 C-6.23796554 275.62627339 -2.50768104 283.17745275 5.81303978 290.75726891 C7.35290297 292.22897501 8.88938983 293.70422224 10.42241478 295.18305016 C11.15395775 295.88381676 11.88550072 296.58458336 12.63921165 297.30658531 C16.71250511 301.30678378 20.20561679 305.68861938 23.62553978 310.25726891 C24.01757591 310.77289391 24.40961205 311.28851891 24.81352806 311.81976891 C31.63067292 320.82785436 37.39705528 330.24895702 42.62553978 340.25726891 C43.23139915 341.41355797 43.83725853 342.56984703 44.46147728 343.76117516 C53.73218849 362.53331662 59.00514067 382.72014655 62.62553978 403.25726891 C62.76749779 404.03554039 62.9094558 404.81381187 63.05571556 405.61566734 C64.28875476 412.52754575 65.15381268 418.51672519 63.14116478 425.31586266 C62.33879504 428.33690629 62.49327937 431.1491493 62.62553978 434.25726891 C66.55396141 436.97915997 70.63948625 436.31636958 75.17241478 436.00726891 C76.07578575 435.95498131 76.97915672 435.90269371 77.90990257 435.84882164 C79.9790393 435.72826718 82.04789537 435.60283636 84.11650658 435.4735775 C87.94234169 435.23774017 91.76906989 435.0207449 95.5962429 434.80805016 C101.5607065 434.47544564 107.52489808 434.1384991 113.48882103 433.79633141 C114.25964767 433.7521357 115.03047432 433.70793999 115.82465935 433.66240501 C119.73603344 433.43797347 123.64736206 433.2127713 127.55864525 432.98676109 C131.42779026 432.76329352 135.29705626 432.54201872 139.16639519 432.32193565 C140.60272588 432.23983569 142.03901388 432.15698393 143.47524834 432.07321739 C156.85159779 431.29334437 170.23645753 430.76675165 183.62553978 430.25726891 C183.51657334 450.00388826 183.40356735 469.75048095 183.28620052 489.49705219 C183.2317482 498.67305595 183.17846851 507.84906332 183.12822533 517.02509117 C182.74230902 587.26879331 182.74230902 587.26879331 182.15678978 621.78070641 C182.13836588 622.9239028 182.11994198 624.06709919 182.10095978 625.2449379 C181.88207278 638.5020292 181.4473178 651.71480625 180.56303978 664.94476891 C180.51658318 665.64641544 180.47012657 666.34806198 180.42226219 667.07097054 C180.29606245 668.9768234 180.16978922 670.8826714 180.04350853 672.78851891 C177.79946929 709.34387026 176.75474023 764.02217926 201.62553978 794.25726891 C204.24948204 795.19962164 204.24948204 795.19962164 206.62553978 795.25726891 C210.54675509 787.68219387 214.10153767 780.00602055 217.51103783 772.1911068 C219.50152121 767.66805698 221.61273566 763.24306428 223.8853054 758.8551693 C233.90627497 739.48021028 233.80613709 719.19332311 233.81303978 697.81976891 C233.81403679 697.02736809 233.8150338 696.23496727 233.81606102 695.41855431 C233.81472482 686.00428672 233.6203079 676.60556627 233.2711916 667.19776726 C232.6727509 650.96770757 232.4216553 634.74912815 232.32222939 618.50792408 C232.29953914 614.93324368 232.27241698 611.35859588 232.24602318 607.78394127 C232.19632645 600.94753284 232.1511329 594.11110234 232.10788763 587.27465034 C232.07312879 581.78996332 232.03651695 576.30529125 231.99886131 570.8206234 C231.67587089 523.63276089 231.46827143 476.44633306 231.62553978 429.25726891 C240.65231612 429.34343954 249.67894066 429.43890934 258.70550728 429.54479599 C262.90147759 429.59375583 267.09743379 429.64004874 271.29350853 429.67914391 C290.73159167 429.86237836 310.10173296 430.31649069 329.50316429 431.57767296 C333.54266444 431.83871434 337.58256829 432.05622306 341.62553978 432.25726891 C342.31411568 432.29736832 343.00269157 432.33746773 343.71213341 432.37878227 C345.75577262 432.4899604 347.79774812 432.56462632 349.84331322 432.6298275 C351.02874718 432.67916435 352.21418114 432.72850121 353.43553734 432.77933311 C357.62468035 432.09375319 359.05345598 430.56375003 361.62553978 427.25726891 C362.03147445 424.3858781 362.17479228 421.99170174 362.12553978 419.13226891 C362.77606872 391.68441493 377.17156452 365.5881508 388.62553978 341.25726891 C389.48115571 339.42270212 390.3366277 337.5880682 391.19194603 335.75336266 C392.02306805 333.98340417 392.85505966 332.21385369 393.68803978 330.44476891 C394.03866478 329.6948568 394.38928978 328.94494469 394.75053978 328.17230797 C397.44110759 322.51110435 400.34167913 316.97138607 403.27397728 311.43305016 C408.27360546 301.98781772 413.10002376 292.46187455 417.86992455 282.89887047 C419.21576585 280.20170379 420.5660032 277.50676679 421.9165554 274.81195641 C422.77944291 273.08552248 423.64208307 271.3589649 424.50444603 269.63226891 C425.10586166 268.43247398 425.10586166 268.43247398 425.71942711 267.20844078 C426.0874897 266.46916344 426.45555229 265.72988609 426.8347683 264.96820641 C427.15768349 264.32158043 427.48059868 263.67495445 427.81329918 263.00873375 C428.74552034 261.084396 428.74552034 261.084396 429.62553978 258.25726891 C437.22438154 254.55051683 446.00563687 253.0414414 454.31303978 251.88226891 C457.00029244 251.1559844 458.11556386 250.60612034 459.62553978 248.25726891 C459.69474614 243.2225062 456.31670652 240.1496006 453.12553978 236.63226891 C452.02419327 235.3858319 450.92394279 234.13842563 449.82475853 232.89008141 C449.00757347 231.96824059 449.00757347 231.96824059 448.17387962 231.02777672 C446.02820416 228.57422288 443.98149773 226.0462202 441.93803978 223.50726891 C438.33798811 219.07393222 434.58650491 214.81213544 430.74272728 210.58930016 C428.84502809 208.49903001 426.97820563 206.38740776 425.12553978 204.25726891 C421.81242755 200.45782827 418.45613893 196.69959102 415.07085228 192.96430016 C413.36589109 191.07685909 411.67415024 189.17742766 409.99272728 187.26898766 C399.43345748 174.95396016 399.43345748 174.95396016 385.62553978 167.25726891 C382.5142615 167.59955795 382.5142615 167.59955795 379.19219017 168.58051109 C378.56125828 168.7467284 377.93032639 168.91294571 377.28027534 169.08419991 C375.17373673 169.64300656 373.07384608 170.22362706 370.97319603 170.80414391 C369.46663744 171.20804537 367.95968393 171.61047625 366.45236778 172.01154137 C363.217756 172.87514485 359.98586797 173.7480809 356.7557888 174.62848473 C351.6698731 176.01446349 346.57861143 177.37993182 341.48589134 178.74066734 C339.75197179 179.20409861 338.01805456 179.6675386 336.28413963 180.13098717 C335.41833904 180.3623613 334.55253845 180.59373543 333.66050148 180.8321209 C331.00125354 181.54355318 328.34255852 182.25702002 325.68398094 182.97095299 C307.88876566 187.74590317 290.04939464 192.34447251 272.20004463 196.91219139 C268.35462958 197.89662471 264.50977296 198.88323437 260.66484642 199.86957359 C253.65240483 201.66805745 246.63926414 203.4637933 239.62553978 205.25726891 C245.83890429 162.22655637 245.83890429 162.22655637 251.62553978 146.25726891 C251.9890554 145.22730797 252.35257103 144.19734703 252.72710228 143.13617516 C255.37399092 136.88075848 259.71006977 133.31375845 264.78569603 128.93305016 C275.40705435 118.92530538 285.36505762 101.15546567 288.12944603 86.60492516 C288.39949294 76.07309569 281.53577426 69.85088221 274.72319603 62.56024742 C270.33476282 57.94158163 265.86702796 53.40054842 261.37553978 48.88226891 C260.72665794 48.22863365 260.07777611 47.5749984 259.40923119 46.90155602 C254.97756252 42.48506814 250.3680856 38.33580985 245.62553978 34.25726891 C244.53097538 33.29595582 243.43718101 32.333765 242.34428978 31.37055016 C221.78580306 10.70214913 221.78580306 10.70214913 198.62553978 10.00726891 Z " fill="#000000" transform="translate(759.3744602203369,544.7427310943604)"/>
<path d="M0 0 C0.79604954 -0.00350607 1.59209907 -0.00701215 2.41227132 -0.01062447 C5.06624631 -0.01989086 7.71999956 -0.01502752 10.37398338 -0.01015663 C12.30146887 -0.0138953 14.22895284 -0.01849768 16.15643442 -0.02388728 C21.44309504 -0.03610605 26.72969234 -0.03585812 32.01636386 -0.03349853 C37.72207725 -0.03309007 43.42777041 -0.04413227 49.13347435 -0.05361366 C60.30874255 -0.0702188 71.48398966 -0.075723 82.65926917 -0.07683842 C91.74502794 -0.07778918 100.83077976 -0.08190089 109.91653633 -0.08823967 C131.49316058 -0.1029861 153.06977834 -0.11528953 174.64640808 -0.11424255 C175.68096735 -0.11419582 175.68096735 -0.11419582 176.73642681 -0.11414814 C180.231935 -0.11398193 183.72744318 -0.11378385 187.22295137 -0.11357872 C187.91713811 -0.11353883 188.61132486 -0.11349894 189.32654756 -0.11345784 C190.73036244 -0.11337697 192.13417731 -0.11329337 193.53799218 -0.11320706 C215.37107506 -0.111982 237.20409578 -0.12698791 259.03716087 -0.15435219 C283.58238931 -0.18510326 308.12757295 -0.20225751 332.67282236 -0.20042574 C345.6629051 -0.1997622 358.65291774 -0.20523876 371.64298439 -0.22678185 C382.7040541 -0.24500845 393.76502194 -0.2493288 404.82610019 -0.235763 C410.46643451 -0.22924072 416.10657347 -0.22908956 421.74688911 -0.2464695 C426.91751588 -0.26223784 432.08779301 -0.25929806 437.25841145 -0.24190123 C439.12179022 -0.23883962 440.98519532 -0.24243184 442.848543 -0.25362138 C457.05825341 -0.33325142 470.0746651 1.19468045 482.87553978 7.94476891 C483.53755394 8.2865316 484.1995681 8.6282943 484.8816433 8.98041344 C503.7941289 19.10284723 517.34365136 36.90200257 523.62553978 57.25726891 C525.55199424 64.1418162 525.91082265 70.64658786 525.88280869 77.77082062 C525.88631476 78.90623326 525.88982083 80.04164591 525.89343315 81.211465 C525.90274431 85.01984216 525.89782445 88.82806631 525.89296532 92.63644981 C525.89559849 95.39302244 525.90122351 98.14958721 525.90669596 100.90615547 C525.91699022 106.90157676 525.91984075 112.89696576 525.91778374 118.89239502 C525.91473225 127.80814321 525.92306103 136.7238557 525.93353299 145.63959695 C525.95287261 162.49081626 525.95850121 179.34202341 525.9596471 196.19325252 C525.96056632 209.20778673 525.96468366 222.22231617 525.97104836 235.23684883 C525.97284346 238.98358499 525.97462308 242.73032116 525.97639811 246.47705734 C525.97706125 247.87425185 525.97706125 247.87425185 525.9777378 249.29967252 C525.99004597 275.49963932 525.99793895 301.69960446 525.99705124 327.89957428 C525.99702008 328.88733537 525.99698892 329.87509647 525.99695682 330.89278971 C525.99679061 335.8991243 525.99659253 340.9054589 525.99638741 345.91179349 C525.99632757 347.40319491 525.99632757 347.40319491 525.99626653 348.92472566 C525.99618565 350.93537752 525.99610206 352.94602938 525.99601574 354.95668124 C525.99479039 386.23528114 526.00980072 417.51383767 526.03716087 448.79242516 C526.06789088 483.93793067 526.0850928 519.08340769 526.08323443 554.22892749 C526.08308517 557.97754979 526.08298776 561.72617209 526.0829258 565.47479439 C526.08289083 566.85929112 526.08289083 566.85929112 526.08285516 568.27175749 C526.08279365 583.11682201 526.09555835 597.96184885 526.11279033 612.80690218 C526.12975511 627.73060415 526.13171403 642.65425106 526.11857168 657.57795735 C526.11118808 666.43983314 526.11482281 675.30154152 526.13445636 684.16339953 C526.14647407 690.08930466 526.14384545 696.0150888 526.12951537 701.94098842 C526.12176721 705.31329905 526.12238516 708.68502327 526.13643007 712.05735232 C526.20101224 728.66697421 525.82341631 743.5786522 517.87553978 758.56976891 C517.53264915 759.23363609 517.18975853 759.89750328 516.83647728 760.58148766 C513.74752268 766.37609592 510.06111159 771.40969734 505.62553978 776.25726891 C505.03514915 776.93918297 504.44475853 777.62109703 503.83647728 778.32367516 C494.49200789 788.48330038 479.31946617 797.64970217 465.62553978 800.25726891 C462.96692386 800.35435926 460.33465753 800.39849774 457.67611694 800.39428329 C456.86527655 800.39693512 456.05443615 800.39958695 455.21902484 800.40231913 C452.48469605 800.41001739 449.75041213 800.41057151 447.01607323 800.41116905 C445.04269365 800.41518334 443.06931489 800.41962151 441.09593713 800.42444861 C435.65924829 800.43642396 430.22256833 800.44206481 424.78586888 800.44662976 C418.92739672 800.45258231 413.06893519 800.46419312 407.2104702 800.47492027 C393.7232846 800.49829381 380.23609572 800.51285333 366.74889608 800.52514969 C362.08138831 800.52940524 357.41388095 800.53398415 352.74637365 800.53873301 C327.92081899 800.56397094 303.09526377 800.58604134 278.2696991 800.59846115 C272.51803269 800.60138241 266.7663663 800.60434994 261.01469994 800.60736656 C259.94285645 800.60792293 259.94285645 800.60792293 258.84935957 800.60849053 C235.69304288 800.62064006 212.53680229 800.65157408 189.38052133 800.69328809 C165.56789847 800.73610606 141.75531581 800.76270609 117.94265342 800.76793587 C114.57691236 800.76867627 111.21117136 800.76958695 107.84543037 800.77059364 C107.18304807 800.77078426 106.52066576 800.77097487 105.83821126 800.77117126 C95.85127227 800.77446316 85.86444603 800.79183291 75.8775425 800.81648445 C64.50999289 800.8444978 53.14258793 800.8554786 41.77500649 800.84428899 C35.97681575 800.83910557 30.17892784 800.84196907 24.38078117 800.86675453 C19.06685702 800.88928001 13.75345267 800.88848112 8.43951921 800.86955066 C6.52284071 800.8667553 4.6061267 800.87232317 2.68950517 800.8873636 C-19.61710646 801.05162932 -36.78789746 793.28644858 -53.06196022 777.88226891 C-72.6240062 757.49559335 -74.98024864 733.89897795 -74.88239479 707.11896324 C-74.8847923 704.36530325 -74.89320133 701.61166863 -74.90130377 698.85802031 C-74.91568377 692.89060521 -74.9153537 686.92333513 -74.90511513 680.95591354 C-74.88993126 672.08189883 -74.89774801 663.20800554 -74.90994836 654.33399154 C-74.93097318 638.48137653 -74.92920099 622.62882613 -74.91763271 606.77620502 C-74.907559 592.90308004 -74.90494903 579.0299787 -74.90972328 565.15685081 C-74.91002882 564.23557934 -74.91033436 563.31430787 -74.91064916 562.36511908 C-74.91189457 558.6251061 -74.91316818 554.88509313 -74.91448822 551.14508017 C-74.92671627 516.08159122 -74.91564298 481.01814335 -74.89410063 445.95466074 C-74.87511909 414.82259796 -74.87681764 383.69060064 -74.8959446 352.55853844 C-74.91737655 317.5579956 -74.92584896 282.55748904 -74.91349554 247.55694056 C-74.91221273 243.82385604 -74.91096136 240.09077152 -74.90972328 236.357687 C-74.90940697 235.4385484 -74.90909066 234.5194098 -74.90876477 233.57241852 C-74.90422042 219.7101311 -74.90952564 205.84786995 -74.91964149 191.98558617 C-74.93108986 176.21897252 -74.92819508 160.45243343 -74.90651852 144.68582904 C-74.89479512 135.86856982 -74.89397506 127.05147217 -74.90910322 118.23421722 C-74.91810299 112.33701253 -74.91243625 106.43993679 -74.89508414 100.54275114 C-74.88561243 97.18778615 -74.88444896 93.8334021 -74.89670807 90.47840756 C-74.98825903 63.33518276 -70.1693319 41.92460145 -50.96821022 21.72601891 C-37.22644758 8.69811406 -19.1139507 -0.10868752 0 0 Z M329.62553978 110.25726891 C326.07615741 116.86192615 324.18690678 123.93216673 322.25053978 131.13226891 C311.80216786 168.65630915 298.84639767 204.29830313 281.62553978 239.25726891 C280.63553978 239.25726891 279.64553978 239.25726891 278.62553978 239.25726891 C277.26274681 237.88373375 277.26274681 237.88373375 275.88335228 235.96820641 C275.37417259 235.27340172 274.8649929 234.57859703 274.34038353 233.86273766 C273.55341087 232.75865562 273.55341087 232.75865562 272.75053978 231.63226891 C271.71301366 230.20146606 270.67397005 228.77176228 269.63335228 227.34320641 C269.13222923 226.64864342 268.63110619 225.95408043 268.11479759 225.23847008 C266.73013334 223.39641264 265.27024474 221.68019261 263.74272728 219.95648766 C261.62553978 217.25726891 261.62553978 217.25726891 261.62553978 213.69476891 C262.08521923 211.30265062 262.69945294 209.002977 263.37944603 206.66351891 C265.40227776 199.23669709 265.9505498 192.31529625 266.00053978 184.63226891 C266.02096336 183.20225548 266.02096336 183.20225548 266.04179955 181.74335289 C265.97925951 171.78577982 263.97848104 160.11939238 257.02397728 152.50336266 C252.11696138 148.01787455 247.73077525 145.98891821 241.00053978 146.25726891 C224.8810025 148.38398447 212.80798721 161.73643367 201.92632103 172.75067711 C200.3682985 174.32709568 198.80228171 175.89522408 197.23491478 177.46234703 C192.37544881 182.33899376 187.61717077 187.26604904 183.13725853 192.4982357 C180.74859603 195.27767906 178.2475767 197.95045293 175.75053978 200.63226891 C172.21988603 204.43914891 168.70972636 208.26004512 165.25053978 212.13226891 C145.38288724 234.22739786 124.55156982 253.94558649 98.31303978 268.31976891 C90.23681549 272.84721061 81.79970318 278.7192074 77.62553978 287.25726891 C76.87493129 290.34344162 76.87493129 290.34344162 77.62553978 293.25726891 C81.68613989 297.43066346 85.47258522 298.39540829 91.12553978 298.56976891 C107.23791472 298.37744613 123.33860014 292.8687183 138.62553978 288.25726891 C140.49789865 287.69594769 142.37029369 287.13474708 144.24272728 286.57367516 C145.70370005 286.13499051 147.16465102 285.69623323 148.62553978 285.25726891 C147.55239525 286.67652672 147.55239525 286.67652672 146.45757103 288.12445641 C140.42345633 296.12586063 134.48083371 304.18486362 128.63139915 312.32221031 C124.02806556 318.71953034 119.35630007 325.06447874 114.66753197 331.39935875 C110.26112732 337.36352053 105.95751016 343.39289494 101.71147728 349.47211266 C99.83546272 351.97697854 97.90288784 354.11903487 95.62553978 356.25726891 C86.01969425 346.1839579 76.68549989 336.10050799 68.39116478 324.89789391 C59.7095926 313.26960849 50.54143517 301.7410853 35.62553978 298.25726891 C31.76791985 297.97106646 31.76791985 297.97106646 28.62553978 299.25726891 C26.41981937 301.23776738 26.41981937 301.23776738 25.62553978 304.25726891 C25.98277758 310.20496494 27.32268772 314.62959794 30.06303978 319.88226891 C30.59646996 320.92085045 30.59646996 320.92085045 31.1406765 321.98041344 C34.9797 329.24186083 39.62955024 335.75735926 44.62553978 342.25726891 C45.17580833 342.97737144 45.72607689 343.69747398 46.29302025 344.43939781 C53.24185349 353.51303326 60.33567589 362.45543324 67.62553978 371.25726891 C69.31563774 373.31765437 71.00167203 375.38132514 72.68803978 377.44476891 C73.44214134 378.36644859 74.1962429 379.28812828 74.97319603 380.23773766 C75.51846947 380.90418297 76.0637429 381.57062828 76.62553978 382.25726891 C73.90201298 387.17529212 70.4622255 391.47402491 67.00053978 395.88226891 C66.37171898 396.68624107 65.74289818 397.49021324 65.0950222 398.3185482 C57.30419421 408.25422762 49.24931599 417.95470707 41.0625515 427.56586266 C39.63154976 429.25019497 38.20816943 430.9407317 36.78569603 432.63226891 C24.3160092 447.40684952 10.8356712 461.14055239 -2.81196022 474.81976891 C-3.46984535 475.48033287 -4.12773048 476.14089684 -4.80555153 476.82147789 C-11.48497616 483.52150455 -18.15007052 490.13974435 -25.37446022 496.25726891 C-27.15016243 497.87694707 -28.9215433 499.50138609 -30.68696022 501.13226891 C-34.27616868 504.40594255 -37.91540005 507.57064947 -41.68696022 510.63226891 C-59.00916734 522.89955037 -59.00916734 522.89955037 -69.43696022 540.19476891 C-69.72583596 543.36758105 -69.72583596 543.36758105 -67.37446022 545.25726891 C-61.16812024 545.8307236 -57.22177633 544.78314622 -51.80024147 541.85883141 C-50.76786102 541.32112617 -50.76786102 541.32112617 -49.7146244 540.77255821 C-42.3566786 536.8588188 -35.44173396 532.32175787 -28.56196022 527.63226891 C-27.24946899 526.74651663 -25.93680375 525.86102216 -24.62397194 524.97577477 C-9.23020894 514.55783481 5.58245603 503.53900676 19.89751244 491.68109703 C21.45640418 490.39663014 23.03034417 489.13047954 24.60600853 487.86664391 C30.23576379 483.34984171 35.59842521 478.61600193 40.8606472 473.68085289 C43.65008648 471.06539112 46.47576236 468.51400424 49.37553978 466.02094078 C53.38024472 462.52334361 57.14085248 458.83961007 60.86382103 455.04633141 C62.19116665 453.70636052 63.51864432 452.36652041 64.8462429 451.02680016 C66.90649705 448.94158672 68.96509242 446.85478193 71.02129173 444.76556969 C73.02696331 442.72981422 75.03871445 440.70022756 77.05132103 438.67133141 C77.66695412 438.04223869 78.2825872 437.41314598 78.91687584 436.76498985 C79.49145027 436.18703667 80.0660247 435.60908348 80.65801048 435.01361656 C81.16016579 434.50400383 81.66232109 433.9943911 82.17969322 433.46933556 C85.02696936 431.08243742 88.4320718 430.96256333 91.99272728 430.53851891 C93.56860619 430.34709312 93.56860619 430.34709312 95.17632103 430.15180016 C96.27331322 430.02160484 97.3703054 429.89140953 98.50053978 429.75726891 C100.66480962 429.49858103 102.82888063 429.23822309 104.99272728 428.97601891 C105.95291771 428.86193687 106.91310814 428.74785484 107.90239525 428.63031578 C110.50556789 428.273704 113.05575422 427.80171995 115.62553978 427.25726891 C115.87303978 427.89664391 116.12053978 428.53601891 116.37553978 429.19476891 C117.49079514 432.10064996 117.49079514 432.10064996 118.64897728 434.10101891 C122.26900236 440.98163395 122.22562118 447.60377167 121.62553978 455.25726891 C120.19796276 459.53999997 117.03555842 460.5648118 113.27788353 462.64398766 C104.14662577 467.85610437 95.39781936 473.54991642 86.66924095 479.40595055 C84.19711394 481.06368405 81.71935611 482.71272218 79.24077415 484.36078453 C61.11843362 496.39516624 61.11843362 496.39516624 43.8113308 509.55341148 C37.88827516 514.17052365 29.81309489 513.80878435 22.62553978 514.25726891 C21.79678441 517.61770165 21.50086839 518.92481185 22.75053978 522.25726891 C26.13115885 527.66625942 29.77786164 530.76319895 35.62553978 533.25726891 C38.83689321 533.76588023 38.83689321 533.76588023 42.18803978 533.69476891 C43.28245384 533.71410484 44.3768679 533.73344078 45.50444603 533.75336266 C56.37519704 532.91150096 65.57081047 528.00716828 74.50053978 522.13226891 C75.54645287 521.46139244 76.59236595 520.79051598 77.66997337 520.09930992 C80.66726932 518.16976301 83.64964033 516.21961449 86.62553978 514.25726891 C87.71318626 513.54014732 87.71318626 513.54014732 88.8228054 512.80853844 C91.20112133 511.23372403 93.573974 509.65125999 95.93852806 508.05585289 C101.69284344 504.17850581 107.52903516 500.43126746 113.37553978 496.69476891 C114.34185326 496.07400475 115.30816673 495.45324059 116.30376244 494.81366539 C117.20916771 494.23689049 118.11457298 493.66011559 119.04741478 493.06586266 C119.85791283 492.5482235 120.66841087 492.03058434 121.50346947 491.49725914 C123.62553978 490.25726891 123.62553978 490.25726891 126.62553978 489.25726891 C126.65027428 493.33237329 126.66841615 497.40744854 126.68047142 501.4826107 C126.68549754 502.86868616 126.69231944 504.25475631 126.70097923 505.64081383 C126.71311996 507.63403605 126.71824999 509.62729709 126.72319603 511.62055016 C126.72843285 512.81978111 126.73366966 514.01901207 126.73906517 515.25458336 C126.62553978 518.25726891 126.62553978 518.25726891 125.62553978 521.25726891 C122.86502356 522.51233003 120.15501749 523.59238765 117.31303978 524.63226891 C108.73857962 527.91845366 100.38236002 531.55879725 92.06303978 535.44476891 C90.28787987 536.27367638 90.28787987 536.27367638 88.47685814 537.11932945 C81.37419633 540.44926989 74.31205191 543.85988259 67.26079369 547.29730797 C18.89706797 570.8339026 18.89706797 570.8339026 -5.37446022 573.25726891 C-6.08731178 573.33976891 -6.80016335 573.42226891 -7.53461647 573.50726891 C-19.94915074 574.24982049 -33.85293197 569.17494187 -43.49946022 561.58539391 C-45.90271321 559.88308971 -47.495051 560.01731814 -50.37446022 560.25726891 C-53.05438902 564.5693348 -52.1356996 567.66217631 -51.13617897 572.43695641 C-48.43391824 582.44224998 -41.99689863 588.7988905 -33.37446022 594.25726891 C-23.19654136 599.22824628 -12.50050849 600.79231788 -1.37446022 598.25726891 C-1.11664772 598.97012047 -0.85883522 599.68297203 -0.59321022 600.41742516 C1.71551555 605.7970522 5.29996541 610.46254315 8.62553978 615.25726891 C9.01306419 615.8165609 9.40058861 616.37585289 9.79985619 616.95209312 C19.2236714 630.48600762 29.25337585 643.30541446 40.62553978 655.25726891 C41.35128197 656.04746422 42.07702415 656.83765953 42.82475853 657.65180016 C53.2443373 668.64917442 68.91276286 680.85853368 84.62553978 681.63226891 C96.13069828 681.42547684 107.87065216 673.50161269 116.09526634 665.89862633 C121.40343255 660.28921906 124.37545412 653.22690214 127.62553978 646.31976891 C128.28052406 644.94507679 128.93572031 643.57048565 129.59111595 642.19598961 C138.90138771 622.57380742 147.65598701 602.69955487 155.50053978 582.44476891 C155.92375511 581.35317467 156.34697044 580.26158043 156.78301048 579.13690758 C158.91804587 573.84030705 158.91804587 573.84030705 159.62553978 568.25726891 C167.22384869 567.86218034 174.82233953 567.47076221 182.42106724 567.08381462 C185.95082475 566.90395889 189.48051255 566.72291834 193.01006126 566.53900719 C197.08352622 566.32681 201.15725281 566.12005943 205.23100853 565.91351891 C206.47633858 565.84789757 207.72166862 565.78227623 209.00473595 565.71466637 C216.88569488 565.32029606 224.7350938 565.17939606 232.62553978 565.25726891 C223.37229277 588.5718929 213.26976987 608.04986831 193.66460228 624.53070641 C191.38350511 626.46221014 189.19818807 628.48142374 187.00053978 630.50726891 C180.8012159 636.09419757 174.22483198 641.15767218 167.62553978 646.25726891 C165.2554499 648.09499858 162.88642552 649.93408868 160.5181179 651.77411461 C158.96063007 652.98371052 157.40208958 654.19195263 155.84233665 655.39862633 C148.31260505 660.53859999 148.31260505 660.53859999 142.62553978 667.25726891 C142.24530576 671.8200771 142.19815949 674.33127829 144.12553978 678.50726891 C147.31886893 682.01993097 150.07577498 683.91321341 154.62553978 685.25726891 C161.86062244 685.34260332 169.03917406 683.40967527 176.00053978 681.63226891 C177.04854759 681.36503014 178.0965554 681.09779137 179.17632103 680.82245445 C212.25744395 672.17374572 254.87244363 656.18582718 275.62553978 627.25726891 C276.563746 624.58570761 276.99240085 621.93173733 277.37553978 619.13226891 C277.48768822 618.44906578 277.59983665 617.76586266 277.71538353 617.06195641 C279.64217014 604.73052213 279.75537982 592.45119959 279.68803978 580.00726891 C279.68301127 578.37575987 279.67845077 576.74424933 279.6743679 575.11273766 C279.66347735 571.1608766 279.64628844 567.20908999 279.62553978 563.25726891 C287.98135962 563.36621806 296.33711428 563.47909872 304.69281769 563.59660816 C308.57531781 563.65109402 312.45782562 563.70436937 316.34038353 563.75458336 C332.25942391 563.96128338 348.15427672 564.22964525 364.05669212 565.03680992 C370.32922266 565.35257627 376.59486737 565.4766688 382.87553978 565.50726891 C383.98026634 565.52789391 385.0849929 565.54851891 386.22319603 565.56976891 C392.95086408 565.60169141 399.47375624 565.24776237 405.62553978 562.25726891 C407.87626107 559.53222817 407.87626107 559.53222817 407.49272728 556.91742516 C403.81519086 545.63633369 389.82510989 531.37138156 379.87163353 525.37445641 C371.11896404 521.02095471 364.25734365 520.74283543 354.94548607 523.24686241 C351.00067551 524.23380387 347.17216612 524.67140306 343.10796165 524.94330406 C342.40453636 524.99236397 341.70111107 525.04142387 340.97636986 525.09197044 C338.68274919 525.25025432 336.38859829 525.39838391 334.09428978 525.54633141 C332.49142304 525.65494372 330.88859959 525.7641966 329.2858181 525.87405968 C325.0908741 526.15989071 320.89540313 526.43707889 316.69975853 526.71240807 C312.40903831 526.99553293 308.11887954 527.28691506 303.82866478 527.57758141 C295.42814776 528.14551311 287.02705534 528.70430596 278.62553978 529.25726891 C277.79311087 526.26291408 277.39218857 523.40113121 277.14482689 520.30512047 C277.06481941 519.32440575 276.98481194 518.34369102 276.90237999 517.33325768 C276.82004616 516.28208763 276.73771233 515.23091759 276.65288353 514.14789391 C276.5655143 513.06594749 276.47814507 511.98400108 276.38812828 510.86926842 C276.10995701 507.41551235 275.83644225 503.96140543 275.56303978 500.50726891 C275.37519542 498.16479638 275.18704806 495.82234812 274.99858665 493.47992516 C274.53738873 487.73931675 274.08001281 481.99841341 273.62553978 476.25726891 C274.2090168 476.20234779 274.79249382 476.14742668 275.39365196 476.09084129 C279.84335459 475.6401853 284.031645 475.04940402 288.33257103 473.76898766 C289.32555199 473.47717613 290.31853294 473.18536461 291.34160423 472.88471031 C292.36342796 472.57452965 293.38525169 472.26434898 294.43803978 471.94476891 C296.03361717 471.46402916 296.03361717 471.46402916 297.66142845 470.9735775 C299.74029444 470.34499042 301.81822236 469.71329021 303.89507103 469.07806969 C306.07573156 468.42254566 308.27057007 467.81424754 310.46928978 467.22211266 C321.01990474 464.23739921 330.22508891 456.87618517 335.62553978 447.25726891 C337.0147588 444.19520035 337.0147588 444.19520035 336.62553978 441.25726891 C332.97961698 435.85124544 327.71842371 434.51845327 321.62553978 433.25726891 C314.69833917 431.99639687 308.4043689 432.53789654 301.43803978 433.38226891 C299.71871239 433.58650475 299.71871239 433.58650475 297.96465111 433.79486656 C288.17711952 435.03757681 278.7430017 437.0892056 269.20952415 439.58685875 C264.67461738 440.76343226 260.11937481 441.8546627 255.56303978 442.94476891 C254.24892113 443.26115318 254.24892113 443.26115318 252.90825462 443.58392906 C247.20651264 444.93775242 241.51219338 446.06747583 235.70757103 446.89789391 C233.57325289 447.16317846 233.57325289 447.16317846 231.62553978 448.25726891 C232.10684349 447.09944908 232.5881472 445.94162926 233.08403587 444.74872398 C244.84374408 416.44272954 256.40971008 388.06564099 267.70180321 359.56967735 C268.36814872 357.90160114 269.04306574 356.23694005 269.72334862 354.57449913 C270.08560539 353.68557976 270.44786217 352.79666039 270.82109642 351.88080406 C271.1531559 351.07261223 271.48521538 350.26442039 271.82733727 349.4317379 C275.402671 339.69178819 271.44132535 329.43439849 267.37553978 320.51508141 C262.18261867 310.33577581 253.69194588 296.22043849 242.56303978 292.13226891 C238.48134844 292.3059579 236.69166946 293.59995651 233.62553978 296.25726891 C229.07248162 303.16535715 229.51377261 310.05854144 230.35234642 317.90009117 C231.38133092 330.54492217 230.41153278 343.07073259 228.93803978 355.63226891 C228.85072594 356.40231255 228.76341209 357.17235619 228.67345238 357.96573448 C227.12395487 371.57067277 224.91667324 384.97528464 222.19487572 398.39838219 C221.27712499 403.00681314 220.44987082 407.63135049 219.62553978 412.25726891 C218.91373558 412.3815023 218.20193138 412.5057357 217.46855736 412.63373375 C212.22197489 413.7844226 207.30427215 415.92703663 202.31303978 417.88226891 C201.10293236 418.35575768 199.89282494 418.82924644 198.64604759 419.31708336 C183.65765231 425.2601589 169.14199827 432.25633294 154.62553978 439.25726891 C152.88226329 434.70619415 151.22317465 430.21263044 149.93803978 425.50726891 C149.560989 424.15375328 149.560989 424.15375328 149.17632103 422.77289391 C148.62553978 420.25726891 148.62553978 420.25726891 148.62553978 416.25726891 C149.17379417 415.99099693 149.72204857 415.72472496 150.28691673 415.45038414 C165.42561251 408.17341821 165.42561251 408.17341821 179.62553978 399.25726891 C180.3087429 398.76871422 180.99194603 398.28015953 181.69585228 397.77680016 C186.07512043 394.35950514 188.93139409 390.59438147 190.62553978 385.25726891 C190.71255007 381.51582632 189.79362793 380.45804086 187.37553978 377.56976891 C182.70437186 373.64174134 178.68403238 372.67783462 172.66069603 372.81976891 C165.12315759 373.90626093 158.01237119 377.4231658 151.02934837 380.34271812 C149.22578997 381.09585598 147.4204403 381.84471848 145.61333275 382.58930016 C143.85821269 383.3145405 142.10825763 384.05243634 140.36430931 384.80414391 C132.90207126 387.90083072 132.90207126 387.90083072 128.62553978 386.25726891 C127.96553978 385.92726891 127.30553978 385.59726891 126.62553978 385.25726891 C128.26391607 381.37543417 130.88348431 378.4540174 133.62553978 375.31976891 C138.76765808 369.34459362 143.59191629 363.18077843 148.3618679 356.90765953 C150.50614427 354.10717495 152.69158929 351.33934871 154.87553978 348.56976891 C156.79282551 346.13275557 158.70919489 343.69502212 160.62553978 341.25726891 C161.43015648 340.23439781 161.43015648 340.23439781 162.25102806 339.19086266 C170.65937798 328.488002 178.83965821 317.64087314 186.87114525 306.65277672 C189.21346246 303.4545 191.57027082 300.26703139 193.92656517 297.07904625 C200.67381894 287.94617302 207.34378972 278.75974529 213.97710228 269.54389 C215.71034259 267.13963515 217.4485963 264.73907041 219.18803978 262.33930016 C219.77383812 261.530494 220.35963646 260.72168785 220.96318626 259.88837242 C222.07908263 258.34791422 223.19573171 256.80800088 224.31328392 255.26874352 C226.55290993 252.17416245 228.74972836 249.08662143 230.79350853 245.85883141 C233.0009306 242.72419793 235.1187029 241.69188399 238.62553978 240.25726891 C268.86565149 262.49054253 286.84270754 299.23252662 303.43852806 331.95990562 C304.43615361 333.8907276 305.50538388 335.78431443 306.59038353 337.66742516 C307.62553978 340.25726891 307.62553978 340.25726891 307.18803978 342.25726891 C304.44092245 345.77357908 301.1909762 348.76567382 297.96928978 351.83539391 C294.05556863 355.54823991 294.05556863 355.54823991 291.62553978 360.25726891 C291.70132933 363.87189676 291.70132933 363.87189676 292.62553978 367.25726891 C296.42728141 369.79176332 299.23677997 370.07929058 303.62553978 369.25726891 C308.91238167 367.0756101 313.86881934 364.42841586 318.62553978 361.25726891 C318.99550072 362.46383141 319.36546165 363.67039391 319.74663353 364.91351891 C321.68464602 370.71296799 324.2400371 376.19343159 326.77629662 381.75086021 C335.05644449 399.97239596 342.46718308 418.54491269 349.87553978 437.13226891 C350.15142559 437.82406242 350.4273114 438.51585594 350.71155739 439.2286129 C352.34121634 443.31546266 353.96849489 447.40325102 355.59329987 451.492033 C356.12354131 452.82611735 356.65412162 454.16006707 357.18504715 455.49387932 C359.80612035 462.08007264 362.41230392 468.67052764 364.93552589 475.29493332 C365.68149838 477.2530384 366.43175989 479.20945006 367.18309593 481.16550255 C368.10664168 483.57633346 369.02088671 485.9907566 369.92394066 488.409338 C372.95112309 496.2862383 375.72632471 502.02061499 383.32866478 506.30023766 C384.21827904 506.81110924 385.1078933 507.32198082 386.02446556 507.84833336 C386.96532005 508.37515709 387.90617455 508.90198082 388.87553978 509.44476891 C390.85893387 510.58517956 392.84068851 511.72844593 394.82085228 512.87445641 C395.80215111 513.44132164 396.78344994 514.00818687 397.79448509 514.59222984 C403.94072325 518.20704049 409.88622424 522.13550151 415.83110619 526.06976891 C417.42943739 527.12749448 419.03299285 528.17731605 420.63725853 529.22601891 C433.87060672 537.93751172 446.80507401 547.11634594 459.56303978 556.50726891 C460.35420189 557.08952232 461.145364 557.67177574 461.96050072 558.2716732 C465.42147528 560.83330228 468.85502784 563.41521724 472.21147728 566.11273766 C482.37614647 574.27221402 494.58382511 582.80508963 508.18803978 582.25726891 C513.14095362 581.5533886 516.4532625 579.05267208 519.62553978 575.25726891 C522.22717185 567.45237269 520.83997429 560.20650044 517.46928978 552.89398766 C516.86105318 551.67855122 516.24575893 550.46663472 515.62553978 549.25726891 C515.24913353 548.52201988 514.87272728 547.78677086 514.48491478 547.02924156 C507.7823173 534.10760592 500.3304368 521.65722831 492.71465111 509.26166344 C488.84693117 502.96077045 485.09526743 496.6274216 481.56303978 490.13226891 C473.08901872 474.75407576 460.2897794 463.0165127 446.62553978 452.25726891 C445.42383206 451.28999159 444.22338048 450.3211523 443.02397728 449.35101891 C437.24091864 444.68225693 431.43774816 440.08460789 425.43803978 435.69476891 C419.08009572 430.97343848 413.34932134 425.71405191 407.62553978 420.25726891 C406.9681179 419.64109703 406.31069603 419.02492516 405.63335228 418.39008141 C400.47651247 413.42335551 396.03735895 407.8827718 391.62553978 402.25726891 C391.14745872 401.65511559 390.66937767 401.05296227 390.17680931 400.43256187 C376.28692268 382.83461463 364.13292245 363.91733138 351.89327049 345.15454674 C351.07606817 343.93152687 350.23230114 342.72565047 349.35756493 341.54309654 C346.61154105 337.78604428 346.61154105 337.78604428 346.68364525 335.06244469 C347.77751285 332.96600687 348.85674989 331.85978521 350.69585228 330.37445641 C351.33748314 329.85182213 351.979114 329.32918785 352.64018822 328.79071617 C353.33660423 328.24342857 354.03302025 327.69614098 354.75053978 327.13226891 C355.8261013 326.27556602 355.8261013 326.27556602 356.92339134 325.40155602 C385.05631533 303.28344871 385.05631533 303.28344871 399.21538353 303.08148766 C400.08227806 303.05764 400.94917259 303.03379234 401.84233665 303.00922203 C403.65199452 302.96635146 405.4619644 302.9350473 407.27202415 302.91547203 C411.49628228 302.78062192 414.03610492 302.60412581 417.73882103 300.42523766 C419.96043797 298.3094779 419.96043797 298.3094779 419.87553978 294.88226891 C417.70857163 284.0271761 410.81393594 274.36418235 403.62553978 266.25726891 C402.86757103 265.37941734 402.10960228 264.50156578 401.32866478 263.59711266 C394.40039682 255.25301023 394.40039682 255.25301023 385.12553978 250.19476891 C380.51458469 250.27710739 379.0356293 251.13739977 375.62553978 254.25726891 C372.79469246 258.24854189 370.52658883 262.53025822 368.26616478 266.86273766 C358.96024775 284.55966414 345.47194658 300.04221877 332.62553978 315.25726891 C328.20586859 309.31910734 323.9504913 303.31005227 319.87553978 297.13226891 C314.31630541 288.70538513 308.48238458 280.4789909 302.62553978 272.25726891 C308.47248428 259.83637887 314.40813196 247.4594278 320.39287376 235.10443687 C323.07676838 229.5603666 325.75159841 224.01324867 328.35991478 218.43305016 C350.75233612 170.53997304 350.75233612 170.53997304 368.62553978 162.25726891 C370.65055654 158.20723538 370.1257841 154.02498619 368.93022728 149.80023766 C366.19647059 142.72284533 362.47050454 136.16629859 358.75053978 129.56976891 C358.25715111 128.69103111 357.76376244 127.81229332 357.25542259 126.90692711 C352.61442076 118.85026298 347.45367803 110.53275338 339.62553978 105.25726891 C334.64273275 104.04195012 332.64259508 106.46660968 329.62553978 110.25726891 Z M310.31303978 600.50726891 C308.25071554 603.86809358 307.76835716 606.32979095 307.62553978 610.25726891 C308.90928354 613.76707898 310.7685853 615.39304604 313.75053978 617.56976891 C314.95903587 618.48435875 314.95903587 618.48435875 316.19194603 619.41742516 C316.99503197 620.02457359 317.7981179 620.63172203 318.62553978 621.25726891 C337.51885309 635.9128297 345.19575556 658.90722956 348.63823509 681.72528648 C349.40683373 686.75325107 349.40683373 686.75325107 351.62553978 691.25726891 C364.27605816 699.020087 386.41195205 696.81183347 400.37553978 693.63226891 C403.1591172 692.93314077 405.89316886 692.13445071 408.62553978 691.25726891 C409.28441185 691.04827965 409.94328392 690.83929039 410.62212181 690.62396812 C423.63927379 686.32994838 437.06312943 679.11790544 444.00053978 666.81976891 C445.92237998 658.94022408 444.09216497 652.4264139 440.62553978 645.25726891 C434.13705973 634.98664375 424.85364508 626.6567456 414.62553978 620.25726891 C414.07575462 619.91196129 413.52596947 619.56665367 412.95952415 619.21088219 C387.58281105 603.50644088 356.97343732 595.22259034 327.18803978 594.88226891 C326.02594994 594.86136192 326.02594994 594.86136192 324.84038353 594.84003258 C318.88699539 594.89065215 314.6899202 596.24868255 310.31303978 600.50726891 Z " fill="#000000" transform="translate(1444.374460220337,544.7427310943604)"/>
<path d="M0 0 C2.4375 2.375 2.4375 2.375 2.8671875 5.91015625 C2.68150406 11.28832295 0.38096814 15.45563384 -2 20.1875 C-7.42926709 31.51555338 -12.15851345 43.06061786 -16.75 54.75 C-17.10867157 55.66134705 -17.46734314 56.57269409 -17.83688354 57.51165771 C-21.92403802 67.91045449 -25.94132667 78.3347265 -29.89453125 88.78515625 C-30.24686325 89.71545654 -30.59919525 90.64575684 -30.96220398 91.60424805 C-32.63376357 96.02130381 -34.29764259 100.44094833 -35.94604492 104.86669922 C-39.15991322 113.44510751 -42.56650843 121.91012251 -46.28125 130.28515625 C-46.647948 131.12171249 -47.014646 131.95826874 -47.39245605 132.82017517 C-51.42708782 141.75546798 -51.42708782 141.75546798 -54.5625 144.375 C-57.93571313 145.11561998 -61.24458634 145.09608124 -64.6875 145.08203125 C-65.6951088 145.09719788 -66.70271759 145.1123645 -67.74085999 145.12799072 C-71.01496598 145.17139693 -74.28813241 145.1798922 -77.5625 145.1875 C-79.79616419 145.21011614 -82.02980861 145.23477667 -84.26342773 145.26147461 C-89.71607935 145.32036692 -95.16834291 145.35071575 -100.62127686 145.36645508 C-103.28547425 145.37419518 -105.94960022 145.3861606 -108.61376953 145.40039062 C-116.26371977 145.43918514 -123.91269984 145.44271579 -131.5625 145.375 C-131.8602656 121.31553932 -131.39592349 97.29573117 -130.625 73.25 C-130.592178 72.21620712 -130.592178 72.21620712 -130.55869293 71.16152954 C-130.12756162 57.586975 -129.67122776 44.01305975 -129.05859375 30.4453125 C-129.02339127 29.62916473 -128.98818878 28.81301697 -128.95191956 27.97213745 C-128.71710718 23.06260112 -128.22783892 18.2453779 -127.5625 13.375 C-22.12504107 -10.092124 -22.12504107 -10.092124 0 0 Z " fill="#000000" transform="translate(1122.5625,784.625)"/>
<path d="M0 0 C1.12605882 13.13707704 1.21770887 26.25573187 1.31640625 39.43359375 C1.33702045 41.76628449 1.35801794 44.09897187 1.37937927 46.43165588 C1.43413941 52.52240246 1.48374857 58.61318011 1.53222656 64.70397949 C1.5827815 70.93874829 1.63828873 77.17347287 1.69335938 83.40820312 C1.80037614 95.60543083 1.90194255 107.8026972 2 120 C-13.4875731 121.19051622 -28.91580617 122.33798127 -44.45874023 122.20581055 C-46.78705001 122.18668214 -49.11497681 122.18530824 -51.44335938 122.18554688 C-62.70220907 122.14889547 -62.70220907 122.14889547 -65 121 C-65.9364334 118.5712091 -66.76026802 116.17506205 -67.5390625 113.6953125 C-68.03782447 112.15529648 -68.53677383 110.61534114 -69.03588867 109.07543945 C-69.29518158 108.26644196 -69.55447449 107.45744446 -69.82162476 106.62393188 C-74.25829793 92.82347669 -78.7132687 79.09026659 -85 66 C-85.34595215 65.2790918 -85.6919043 64.55818359 -86.04833984 63.81542969 C-90.26207038 55.18380401 -94.92896657 47.15871043 -100.81396484 39.55151367 C-103.18484023 36.43837265 -104.94717673 33.98815672 -105 30 C-104.03222656 28.00456238 -104.03222656 28.00456238 -102 26 C-99.13646265 25.00888334 -96.45269634 24.24239099 -93.515625 23.56762695 C-91.78308789 23.14146962 -90.05066922 22.71483049 -88.31835938 22.28775024 C-86.98889282 21.96799917 -86.98889282 21.96799917 -85.63256836 21.64178848 C-81.5879941 20.65576996 -77.56871326 19.57895087 -73.546875 18.50463867 C-71.94040302 18.07982256 -70.33379273 17.65552912 -68.72705078 17.23173523 C-67.91528381 17.01740026 -67.10351685 16.8030653 -66.26715088 16.58223534 C-60.94619005 15.17805392 -55.62452603 13.77653973 -50.30282593 12.37516308 C-45.65546956 11.15122346 -41.00849917 9.92585334 -36.36230469 8.69750977 C-31.81549877 7.49550385 -27.26776732 6.2970622 -22.71936035 5.10112953 C-20.99660486 4.64748438 -19.27418903 4.19254731 -17.55212402 3.73628807 C-15.16323687 3.10357537 -12.77319272 2.47543309 -10.3828125 1.84838867 C-9.3216774 1.56562325 -9.3216774 1.56562325 -8.23910522 1.27714539 C-5.3986402 0.53633443 -2.95055996 0 0 0 Z " fill="#000000" transform="translate(941,812)"/>
<path d="M0 0 C-0.5697375 4.85259181 -1.58457402 9.4069886 -2.86694336 14.11889648 C-7.18671225 29.15797363 -7.18671225 29.15797363 -4 44 C-3.01 44.33 -2.02 44.66 -1 45 C0.8080286 43.94026356 0.8080286 43.94026356 2.5 42.3125 C3.0878125 41.79300781 3.675625 41.27351563 4.28125 40.73828125 C6.06910381 39.06591249 6.06910381 39.06591249 7.23364258 36.95678711 C9.66805748 34.25991974 11.40479101 34.30197161 14.98046875 33.953125 C16.02871826 33.84129883 17.07696777 33.72947266 18.15698242 33.61425781 C19.48705322 33.49405273 20.81712402 33.37384766 22.1875 33.25 C28.5296875 32.63125 28.5296875 32.63125 35 32 C35 48.5 35 65 35 82 C27.27823537 82.39322718 19.55648131 82.78578824 11.83438873 83.17237854 C8.23707899 83.35264836 4.63983381 83.53403011 1.04272461 83.71826172 C-2.43254066 83.89620728 -5.90795714 84.07088577 -9.38349342 84.24345398 C-11.33135007 84.34097784 -13.27904359 84.44174283 -15.22673035 84.54260254 C-23.15847557 84.93300225 -31.05898956 85.07863056 -39 85 C-38.9779248 84.26213257 -38.95584961 83.52426514 -38.93310547 82.76403809 C-38.84820652 79.73874011 -38.79987051 76.71357146 -38.75 73.6875 C-38.71648437 72.63498047 -38.68296875 71.58246094 -38.6484375 70.49804688 C-38.51183389 59.39900375 -41.1862167 50.93690835 -48.875 42.875 C-49.94381146 41.69605872 -51.00894112 40.51376882 -52.0703125 39.328125 C-52.57594727 38.76544922 -53.08158203 38.20277344 -53.60253906 37.62304688 C-56.43445535 34.33398687 -58.76238117 30.70973649 -61 27 C-56.49820039 22.99321155 -51.48068988 20.47270742 -46.125 17.8125 C-45.16698486 17.33490234 -44.20896973 16.85730469 -43.22192383 16.36523438 C-9.76067021 0 -9.76067021 0 0 0 Z " fill="#000000" transform="translate(1652,995)"/>
<path d="M0 0 C0.99 0.495 0.99 0.495 2 1 C-3.21283773 22.47893332 -9.16784706 43.61154039 -20 63 C-20.58652344 64.05960938 -21.17304687 65.11921875 -21.77734375 66.2109375 C-25.18557079 71.97632836 -28.70519848 77.2271567 -35 80 C-53.52786581 84.1787558 -77.29762556 69.20392169 -92.1875 59.8125 C-97.99011091 56.12342691 -103.5506397 52.19302363 -109 48 C-106.43335516 46.28890344 -104.85139996 45.52314826 -101.9921875 44.66015625 C-78.24894586 37.25994231 -56.19563632 26.2989028 -33.97949219 15.25708008 C-25.52879626 11.07123707 -17.03849568 7.03544706 -8.3671875 3.32421875 C-7.14952194 2.79596245 -7.14952194 2.79596245 -5.90725708 2.2570343 C-3.96352141 1.44142854 -1.98409077 0.71183211 0 0 Z " fill="#000000" transform="translate(1565,1094)"/>
<path d="" fill="#000000" transform="translate(0,0)"/>
</svg>
